<?xml version="1.0" standalone="no"?>
 <!DOCTYPE svg PUBLIC "-//W3C//DTD SVG 1.1//EN" 
 "http://www.w3.org/Graphics/SVG/1.1/DTD/svg11.dtd"> 
<svg xmlns="http://www.w3.org/2000/svg" version="1.1" 
    width="29.7002cm" height="21.0007cm" viewBox="0 0 116930 82680 ">
<title>SVG Picture created as uControl.svg date 2020/03/14 14:48:46 </title>
  <desc>Picture generated by Eeschema-SVG </desc>
<g style="fill:#000000; fill-opacity:1;stroke:#000000; stroke-opacity:1;
stroke-linecap:round; stroke-linejoin:round; "
 transform="translate(0 0) scale(1 1)">
</g>
<g style="fill:#000000; fill-opacity:0.0; 
stroke:#000000; stroke-width:0; stroke-opacity:1; 
stroke-linecap:round; stroke-linejoin:round;">
</g>
<g style="fill:#000000; fill-opacity:0.0; 
stroke:#000000; stroke-width:100; stroke-opacity:1; 
stroke-linecap:round; stroke-linejoin:round;">
<rect x="46500" y="24500" width="10000" height="16000" rx="0" />
</g>
<g style="fill:#000000; fill-opacity:0.0; 
stroke:#000000; stroke-width:60; stroke-opacity:1; 
stroke-linecap:round; stroke-linejoin:round;">
<path d="M51500 24500
L51500 23500
" />
<path d="M51220 26110
L51720 25940
L51220 25770
" />
<path d="M51670 25320
L51700 25340
L51720 25420
L51720 25460
L51700 25530
L51650 25580
L51600 25610
L51510 25630
L51440 25630
L51340 25610
L51290 25580
L51250 25530
L51220 25460
L51220 25420
L51250 25340
L51270 25320
" />
<path d="M51670 24820
L51700 24840
L51720 24920
L51720 24960
L51700 25030
L51650 25080
L51600 25110
L51510 25130
L51440 25130
L51340 25110
L51290 25080
L51250 25030
L51220 24960
L51220 24920
L51250 24840
L51270 24820
" />
<path d="M51370 23850
L51370 24140
" />
<path d="M51370 24000
L50870 24000
L50940 24040
L50990 24090
L51010 24140
" />
<path d="M56500 29500
L57500 29500
" />
<path d="M54980 29720
L54980 29220
L55170 29220
L55220 29250
L55240 29270
L55270 29320
L55270 29390
L55240 29440
L55220 29460
L55170 29480
L54980 29480
" />
<path d="M55460 29580
L55690 29580
" />
<path d="M55410 29720
L55570 29220
L55740 29720
" />
<path d="M55860 29220
L56170 29220
L56000 29410
L56070 29410
L56120 29440
L56150 29460
L56170 29510
L56170 29630
L56150 29670
L56120 29700
L56070 29720
L55930 29720
L55880 29700
L55860 29670
" />
<path d="M56900 29370
L56610 29370
" />
<path d="M56760 29370
L56760 28870
L56710 28940
L56660 28990
L56610 29010
" />
<path d="M57210 28870
L57260 28870
L57300 28900
L57330 28920
L57350 28970
L57380 29060
L57380 29180
L57350 29280
L57330 29320
L57300 29350
L57260 29370
L57210 29370
L57160 29350
L57140 29320
L57110 29280
L57090 29180
L57090 29060
L57110 28970
L57140 28920
L57160 28900
L57210 28870
" />
<path d="M56500 28500
L57500 28500
" />
<path d="M54980 28720
L54980 28220
L55170 28220
L55220 28250
L55240 28270
L55270 28320
L55270 28390
L55240 28440
L55220 28460
L55170 28480
L54980 28480
" />
<path d="M55460 28580
L55690 28580
" />
<path d="M55410 28720
L55570 28220
L55740 28720
" />
<path d="M55880 28270
L55910 28250
L55960 28220
L56070 28220
L56120 28250
L56150 28270
L56170 28320
L56170 28360
L56150 28440
L55860 28720
L56170 28720
" />
<path d="M56900 28370
L56610 28370
" />
<path d="M56760 28370
L56760 27870
L56710 27940
L56660 27990
L56610 28010
" />
<path d="M57380 28370
L57090 28370
" />
<path d="M57230 28370
L57230 27870
L57190 27940
L57140 27990
L57090 28010
" />
<path d="M56500 27500
L57500 27500
" />
<path d="M54980 27720
L54980 27220
L55170 27220
L55220 27250
L55240 27270
L55270 27320
L55270 27390
L55240 27440
L55220 27460
L55170 27480
L54980 27480
" />
<path d="M55460 27580
L55690 27580
" />
<path d="M55410 27720
L55570 27220
L55740 27720
" />
<path d="M56170 27720
L55880 27720
" />
<path d="M56030 27720
L56030 27220
L55980 27290
L55930 27340
L55880 27360
" />
<path d="M56900 27370
L56610 27370
" />
<path d="M56760 27370
L56760 26870
L56710 26940
L56660 26990
L56610 27010
" />
<path d="M57090 26920
L57110 26900
L57160 26870
L57280 26870
L57330 26900
L57350 26920
L57380 26970
L57380 27010
L57350 27090
L57070 27370
L57380 27370
" />
<path d="M56500 26500
L57500 26500
" />
<path d="M52620 26580
L52860 26580
" />
<path d="M52570 26720
L52740 26220
L52910 26720
" />
<path d="M53360 26720
L53190 26480
" />
<path d="M53070 26720
L53070 26220
L53270 26220
L53310 26250
L53340 26270
L53360 26320
L53360 26390
L53340 26440
L53310 26460
L53270 26480
L53070 26480
" />
<path d="M53570 26460
L53740 26460
" />
<path d="M53810 26720
L53570 26720
L53570 26220
L53810 26220
" />
<path d="M54190 26460
L54030 26460
" />
<path d="M54030 26720
L54030 26220
L54270 26220
" />
<path d="M54810 26200
L54380 26840
" />
<path d="M54980 26720
L54980 26220
L55170 26220
L55220 26250
L55240 26270
L55270 26320
L55270 26390
L55240 26440
L55220 26460
L55170 26480
L54980 26480
" />
<path d="M55460 26580
L55690 26580
" />
<path d="M55410 26720
L55570 26220
L55740 26720
" />
<path d="M56000 26220
L56050 26220
L56100 26250
L56120 26270
L56150 26320
L56170 26410
L56170 26530
L56150 26630
L56120 26670
L56100 26700
L56050 26720
L56000 26720
L55960 26700
L55930 26670
L55910 26630
L55880 26530
L55880 26410
L55910 26320
L55930 26270
L55960 26250
L56000 26220
" />
<path d="M56900 26370
L56610 26370
" />
<path d="M56760 26370
L56760 25870
L56710 25940
L56660 25990
L56610 26010
" />
<path d="M57070 25870
L57380 25870
L57210 26060
L57280 26060
L57330 26090
L57350 26110
L57380 26160
L57380 26280
L57350 26320
L57330 26350
L57280 26370
L57140 26370
L57090 26350
L57070 26320
" />
<path d="M51500 40500
L51500 41500
" />
<path d="M51250 39880
L51220 39930
L51220 40000
L51250 40070
L51290 40120
L51340 40150
L51440 40170
L51510 40170
L51600 40150
L51650 40120
L51700 40070
L51720 40000
L51720 39960
L51700 39880
L51670 39860
L51510 39860
L51510 39960
" />
<path d="M51720 39650
L51220 39650
L51720 39360
L51220 39360
" />
<path d="M51720 39120
L51220 39120
L51220 39000
L51250 38930
L51290 38880
L51340 38860
L51440 38840
L51510 38840
L51600 38860
L51650 38880
L51700 38930
L51720 39000
L51720 39120
" />
<path d="M51370 41090
L51370 41380
" />
<path d="M51370 41230
L50870 41230
L50940 41280
L50990 41330
L51010 41380
" />
<path d="M51040 40660
L51370 40660
" />
<path d="M50850 40780
L51200 40900
L51200 40590
" />
<path d="M56500 35500
L57500 35500
" />
<path d="M52170 35220
L52500 35720
" />
<path d="M52500 35220
L52170 35720
" />
<path d="M52620 35220
L52910 35220
" />
<path d="M52770 35720
L52770 35220
" />
<path d="M53050 35580
L53290 35580
" />
<path d="M53000 35720
L53170 35220
L53340 35720
" />
<path d="M53740 35720
L53500 35720
L53500 35220
" />
<path d="M54170 35720
L53880 35720
" />
<path d="M54030 35720
L54030 35220
L53980 35290
L53930 35340
L53880 35360
" />
<path d="M54740 35200
L54310 35840
" />
<path d="M54910 35720
L54910 35220
L55100 35220
L55150 35250
L55170 35270
L55190 35320
L55190 35390
L55170 35440
L55150 35460
L55100 35480
L54910 35480
" />
<path d="M55570 35460
L55650 35480
L55670 35510
L55690 35550
L55690 35630
L55670 35670
L55650 35700
L55600 35720
L55410 35720
L55410 35220
L55570 35220
L55620 35250
L55650 35270
L55670 35320
L55670 35360
L55650 35410
L55620 35440
L55570 35460
L55410 35460
" />
<path d="M56000 35220
L56050 35220
L56100 35250
L56120 35270
L56150 35320
L56170 35410
L56170 35530
L56150 35630
L56120 35670
L56100 35700
L56050 35720
L56000 35720
L55960 35700
L55930 35670
L55910 35630
L55880 35530
L55880 35410
L55910 35320
L55930 35270
L55960 35250
L56000 35220
" />
<path d="M56850 34920
L56880 34900
L56920 34870
L57040 34870
L57090 34900
L57110 34920
L57140 34970
L57140 35010
L57110 35090
L56830 35370
L57140 35370
" />
<path d="M56500 36500
L57500 36500
" />
<path d="M52170 36220
L52500 36720
" />
<path d="M52500 36220
L52170 36720
" />
<path d="M52620 36220
L52910 36220
" />
<path d="M52770 36720
L52770 36220
" />
<path d="M53050 36580
L53290 36580
" />
<path d="M53000 36720
L53170 36220
L53340 36720
" />
<path d="M53740 36720
L53500 36720
L53500 36220
" />
<path d="M53880 36270
L53910 36250
L53960 36220
L54070 36220
L54120 36250
L54150 36270
L54170 36320
L54170 36360
L54150 36440
L53860 36720
L54170 36720
" />
<path d="M54740 36200
L54310 36840
" />
<path d="M54910 36720
L54910 36220
L55100 36220
L55150 36250
L55170 36270
L55190 36320
L55190 36390
L55170 36440
L55150 36460
L55100 36480
L54910 36480
" />
<path d="M55570 36460
L55650 36480
L55670 36510
L55690 36550
L55690 36630
L55670 36670
L55650 36700
L55600 36720
L55410 36720
L55410 36220
L55570 36220
L55620 36250
L55650 36270
L55670 36320
L55670 36360
L55650 36410
L55620 36440
L55570 36460
L55410 36460
" />
<path d="M56170 36720
L55880 36720
" />
<path d="M56030 36720
L56030 36220
L55980 36290
L55930 36340
L55880 36360
" />
<path d="M56830 35870
L57140 35870
L56970 36060
L57040 36060
L57090 36090
L57110 36110
L57140 36160
L57140 36280
L57110 36320
L57090 36350
L57040 36370
L56900 36370
L56850 36350
L56830 36320
" />
<path d="M56500 38500
L57500 38500
" />
<path d="M52000 38080
L52500 38080
" />
<path d="M52410 38720
L52240 38480
" />
<path d="M52120 38720
L52120 38220
L52310 38220
L52360 38250
L52380 38270
L52410 38320
L52410 38390
L52380 38440
L52360 38460
L52310 38480
L52120 38480
" />
<path d="M52500 38080
L52960 38080
" />
<path d="M52620 38460
L52790 38460
" />
<path d="M52860 38720
L52620 38720
L52620 38220
L52860 38220
" />
<path d="M52960 38080
L53430 38080
" />
<path d="M53050 38700
L53120 38720
L53240 38720
L53290 38700
L53310 38670
L53340 38630
L53340 38580
L53310 38530
L53290 38510
L53240 38480
L53150 38460
L53100 38440
L53070 38410
L53050 38360
L53050 38320
L53070 38270
L53100 38250
L53150 38220
L53270 38220
L53340 38250
" />
<path d="M53430 38080
L53880 38080
" />
<path d="M53550 38460
L53720 38460
" />
<path d="M53790 38720
L53550 38720
L53550 38220
L53790 38220
" />
<path d="M53880 38080
L54270 38080
" />
<path d="M53930 38220
L54220 38220
" />
<path d="M54070 38720
L54070 38220
" />
<path d="M54740 38200
L54310 38840
" />
<path d="M54910 38720
L54910 38220
L55100 38220
L55150 38250
L55170 38270
L55190 38320
L55190 38390
L55170 38440
L55150 38460
L55100 38480
L54910 38480
" />
<path d="M55570 38460
L55650 38480
L55670 38510
L55690 38550
L55690 38630
L55670 38670
L55650 38700
L55600 38720
L55410 38720
L55410 38220
L55570 38220
L55620 38250
L55650 38270
L55670 38320
L55670 38360
L55650 38410
L55620 38440
L55570 38460
L55410 38460
" />
<path d="M55860 38220
L56170 38220
L56000 38410
L56070 38410
L56120 38440
L56150 38460
L56170 38510
L56170 38630
L56150 38670
L56120 38700
L56070 38720
L55930 38720
L55880 38700
L55860 38670
" />
<path d="M57090 38040
L57090 38370
" />
<path d="M56970 37850
L56850 38200
L57160 38200
" />
<path d="M56500 37500
L57500 37500
" />
<path d="M54910 37720
L54910 37220
L55100 37220
L55150 37250
L55170 37270
L55190 37320
L55190 37390
L55170 37440
L55150 37460
L55100 37480
L54910 37480
" />
<path d="M55570 37460
L55650 37480
L55670 37510
L55690 37550
L55690 37630
L55670 37670
L55650 37700
L55600 37720
L55410 37720
L55410 37220
L55570 37220
L55620 37250
L55650 37270
L55670 37320
L55670 37360
L55650 37410
L55620 37440
L55570 37460
L55410 37460
" />
<path d="M55880 37270
L55910 37250
L55960 37220
L56070 37220
L56120 37250
L56150 37270
L56170 37320
L56170 37360
L56150 37440
L55860 37720
L56170 37720
" />
<path d="M57110 36870
L56880 36870
L56850 37110
L56880 37090
L56920 37060
L57040 37060
L57090 37090
L57110 37110
L57140 37160
L57140 37280
L57110 37320
L57090 37350
L57040 37370
L56920 37370
L56880 37350
L56850 37320
" />
<path d="M56500 33500
L57500 33500
" />
<path d="M54980 33720
L54980 33220
L55170 33220
L55220 33250
L55240 33270
L55270 33320
L55270 33390
L55240 33440
L55220 33460
L55170 33480
L54980 33480
" />
<path d="M55460 33580
L55690 33580
" />
<path d="M55410 33720
L55570 33220
L55740 33720
" />
<path d="M55860 33220
L56190 33220
L55980 33720
" />
<path d="M57090 32870
L57000 32870
L56950 32900
L56920 32920
L56880 32990
L56850 33090
L56850 33280
L56880 33320
L56900 33350
L56950 33370
L57040 33370
L57090 33350
L57110 33320
L57140 33280
L57140 33160
L57110 33110
L57090 33090
L57040 33060
L56950 33060
L56900 33090
L56880 33110
L56850 33160
" />
<path d="M56500 32500
L57500 32500
" />
<path d="M54980 32720
L54980 32220
L55170 32220
L55220 32250
L55240 32270
L55270 32320
L55270 32390
L55240 32440
L55220 32460
L55170 32480
L54980 32480
" />
<path d="M55460 32580
L55690 32580
" />
<path d="M55410 32720
L55570 32220
L55740 32720
" />
<path d="M56120 32220
L56030 32220
L55980 32250
L55960 32270
L55910 32340
L55880 32440
L55880 32630
L55910 32670
L55930 32700
L55980 32720
L56070 32720
L56120 32700
L56150 32670
L56170 32630
L56170 32510
L56150 32460
L56120 32440
L56070 32410
L55980 32410
L55930 32440
L55910 32460
L55880 32510
" />
<path d="M56830 31870
L57160 31870
L56950 32370
" />
<path d="M56500 31500
L57500 31500
" />
<path d="M54980 31720
L54980 31220
L55170 31220
L55220 31250
L55240 31270
L55270 31320
L55270 31390
L55240 31440
L55220 31460
L55170 31480
L54980 31480
" />
<path d="M55460 31580
L55690 31580
" />
<path d="M55410 31720
L55570 31220
L55740 31720
" />
<path d="M56150 31220
L55910 31220
L55880 31460
L55910 31440
L55960 31410
L56070 31410
L56120 31440
L56150 31460
L56170 31510
L56170 31630
L56150 31670
L56120 31700
L56070 31720
L55960 31720
L55910 31700
L55880 31670
" />
<path d="M56950 31090
L56900 31060
L56880 31040
L56850 30990
L56850 30970
L56880 30920
L56900 30900
L56950 30870
L57040 30870
L57090 30900
L57110 30920
L57140 30970
L57140 30990
L57110 31040
L57090 31060
L57040 31090
L56950 31090
L56900 31110
L56880 31130
L56850 31180
L56850 31280
L56880 31320
L56900 31350
L56950 31370
L57040 31370
L57090 31350
L57110 31320
L57140 31280
L57140 31180
L57110 31130
L57090 31110
L57040 31090
" />
<path d="M56500 30500
L57500 30500
" />
<path d="M54980 30720
L54980 30220
L55170 30220
L55220 30250
L55240 30270
L55270 30320
L55270 30390
L55240 30440
L55220 30460
L55170 30480
L54980 30480
" />
<path d="M55460 30580
L55690 30580
" />
<path d="M55410 30720
L55570 30220
L55740 30720
" />
<path d="M56120 30390
L56120 30720
" />
<path d="M56000 30200
L55880 30550
L56190 30550
" />
<path d="M56900 30370
L57000 30370
L57040 30350
L57070 30320
L57110 30250
L57140 30160
L57140 29970
L57110 29920
L57090 29900
L57040 29870
L56950 29870
L56900 29900
L56880 29920
L56850 29970
L56850 30090
L56880 30130
L56900 30160
L56950 30180
L57040 30180
L57090 30160
L57110 30130
L57140 30090
" />
<path d="M45280 31780
L45280 32190
L45310 32230
L45330 32260
L45380 32280
L45470 32280
L45520 32260
L45550 32230
L45570 32190
L45570 31780
" />
<path d="M45780 31830
L45810 31810
L45860 31780
L45970 31780
L46020 31810
L46050 31830
L46070 31880
L46070 31920
L46050 32000
L45760 32280
L46070 32280
" />
<path d="M40620 33050
L40860 33050
" />
<path d="M40570 33190
L40740 32690
L40900 33190
" />
<path d="M41000 32690
L41290 32690
" />
<path d="M41140 33190
L41140 32690
" />
<path d="M41380 32860
L41570 32860
" />
<path d="M41450 32690
L41450 33120
L41480 33170
L41520 33190
L41570 33190
" />
<path d="M41740 33190
L41740 32860
" />
<path d="M41740 32690
L41710 32720
L41740 32740
L41760 32720
L41740 32690
L41740 32740
" />
<path d="M41980 32860
L41980 33190
" />
<path d="M41980 32910
L42000 32880
L42050 32860
L42120 32860
L42170 32880
L42190 32930
L42190 33190
" />
<path d="M42380 32860
L42500 33190
" />
<path d="M42620 32860
L42500 33190
L42450 33310
L42430 33330
L42380 33360
" />
<path d="M43020 32860
L43020 33190
" />
<path d="M42900 32670
L42790 33020
L43100 33020
" />
<path d="M43500 32860
L43500 33190
" />
<path d="M43380 32670
L43260 33020
L43570 33020
" />
<path d="M43740 33050
L43980 33050
" />
<path d="M43690 33190
L43860 32690
L44020 33190
" />
<path d="M44190 33000
L44570 33000
" />
<path d="M44790 33170
L44860 33190
L44980 33190
L45020 33170
L45050 33140
L45070 33100
L45070 33050
L45050 33000
L45020 32980
L44980 32950
L44880 32930
L44830 32910
L44810 32880
L44790 32830
L44790 32790
L44810 32740
L44830 32720
L44880 32690
L45000 32690
L45070 32720
" />
<path d="M45260 33170
L45330 33190
L45450 33190
L45500 33170
L45520 33140
L45550 33100
L45550 33050
L45520 33000
L45500 32980
L45450 32950
L45360 32930
L45310 32910
L45290 32880
L45260 32830
L45260 32790
L45290 32740
L45310 32720
L45360 32690
L45480 32690
L45550 32720
" />
<path d="M45760 32690
L45760 33100
L45790 33140
L45810 33170
L45860 33190
L45950 33190
L46000 33170
L46020 33140
L46050 33100
L46050 32690
" />
</g>
<g style="fill:#000000; fill-opacity:0.0; 
stroke:#000000; stroke-width:0; stroke-opacity:1; 
stroke-linecap:round; stroke-linejoin:round;">
</g>
<g style="fill:#000000; fill-opacity:0.0; 
stroke:#000000; stroke-width:100; stroke-opacity:1; 
stroke-linecap:round; stroke-linejoin:round;">
<rect x="38500" y="20750" width="4000" height="2750" rx="0" />
</g>
<g style="fill:#000000; fill-opacity:0.0; 
stroke:#000000; stroke-width:60; stroke-opacity:1; 
stroke-linecap:round; stroke-linejoin:round;">
<path d="M42500 21500
L43500 21500
" />
<path d="M41460 21220
L41630 21720
L41790 21220
" />
<path d="M42060 21220
L42150 21220
L42200 21250
L42250 21290
L42270 21390
L42270 21550
L42250 21650
L42200 21700
L42150 21720
L42060 21720
L42010 21700
L41960 21650
L41940 21550
L41940 21390
L41960 21290
L42010 21250
L42060 21220
" />
<path d="M43140 21370
L42850 21370
" />
<path d="M43000 21370
L43000 20870
L42950 20940
L42900 20990
L42850 21010
" />
<path d="M40500 23500
L40500 24500
" />
<path d="M40250 22980
L40220 23030
L40220 23100
L40250 23170
L40290 23220
L40340 23250
L40440 23270
L40510 23270
L40600 23250
L40650 23220
L40700 23170
L40720 23100
L40720 23060
L40700 22980
L40670 22960
L40510 22960
L40510 23060
" />
<path d="M40720 22750
L40220 22750
L40720 22460
L40220 22460
" />
<path d="M40720 22220
L40220 22220
L40220 22100
L40250 22030
L40290 21980
L40340 21960
L40440 21940
L40510 21940
L40600 21960
L40650 21980
L40700 22030
L40720 22100
L40720 22220
" />
<path d="M39920 24140
L39900 24110
L39870 24070
L39870 23950
L39900 23900
L39920 23880
L39970 23850
L40010 23850
L40090 23880
L40370 24160
L40370 23850
" />
<path d="M38500 21500
L37500 21500
" />
<path d="M38670 21220
L38840 21720
L39010 21220
" />
<path d="M39170 21720
L39170 21220
" />
<path d="M37830 20870
L38140 20870
L37970 21060
L38040 21060
L38090 21090
L38110 21110
L38140 21160
L38140 21280
L38110 21320
L38090 21350
L38040 21370
L37900 21370
L37850 21350
L37830 21320
" />
<path d="M40110 18820
L40110 19230
L40140 19270
L40160 19300
L40210 19320
L40300 19320
L40350 19300
L40380 19270
L40400 19230
L40400 18820
" />
<path d="M40900 19320
L40610 19320
" />
<path d="M40760 19320
L40760 18820
L40710 18890
L40660 18940
L40610 18960
" />
<path d="M37390 20230
L37150 20230
L37150 19730
" />
<path d="M37550 20230
L37550 19730
L37720 20090
L37890 19730
L37890 20230
" />
<path d="M38100 19780
L38130 19760
L38170 19730
L38290 19730
L38340 19760
L38360 19780
L38390 19830
L38390 19870
L38360 19950
L38080 20230
L38390 20230
" />
<path d="M38630 20230
L38720 20230
L38770 20210
L38790 20180
L38840 20110
L38860 20020
L38860 19830
L38840 19780
L38820 19760
L38770 19730
L38670 19730
L38630 19760
L38600 19780
L38580 19830
L38580 19950
L38600 19990
L38630 20020
L38670 20040
L38770 20040
L38820 20020
L38840 19990
L38860 19950
" />
<path d="M39030 19730
L39340 19730
L39170 19920
L39250 19920
L39290 19950
L39320 19970
L39340 20020
L39340 20140
L39320 20180
L39290 20210
L39250 20230
L39100 20230
L39050 20210
L39030 20180
" />
<path d="M39770 19730
L39670 19730
L39630 19760
L39600 19780
L39550 19850
L39530 19950
L39530 20140
L39550 20180
L39580 20210
L39630 20230
L39720 20230
L39770 20210
L39790 20180
L39820 20140
L39820 20020
L39790 19970
L39770 19950
L39720 19920
L39630 19920
L39580 19950
L39550 19970
L39530 20020
" />
<path d="M40030 20040
L40410 20040
" />
<path d="M40600 19730
L40910 19730
L40750 19920
L40820 19920
L40860 19950
L40890 19970
L40910 20020
L40910 20140
L40890 20180
L40860 20210
L40820 20230
L40670 20230
L40630 20210
L40600 20180
" />
<path d="M41130 20180
L41150 20210
L41130 20230
L41100 20210
L41130 20180
L41130 20230
" />
<path d="M41460 19730
L41510 19730
L41550 19760
L41580 19780
L41600 19830
L41630 19920
L41630 20040
L41600 20140
L41580 20180
L41550 20210
L41510 20230
L41460 20230
L41410 20210
L41390 20180
L41360 20140
L41340 20040
L41340 19920
L41360 19830
L41390 19780
L41410 19760
L41460 19730
" />
<path d="M41720 20280
L42100 20280
" />
<path d="M42150 19730
L42440 19730
" />
<path d="M42290 20230
L42290 19730
" />
<path d="M42700 19730
L42790 19730
L42840 19760
L42890 19800
L42910 19900
L42910 20060
L42890 20160
L42840 20210
L42790 20230
L42700 20230
L42650 20210
L42600 20160
L42580 20060
L42580 19900
L42600 19800
L42650 19760
L42700 19730
" />
<path d="M43150 20230
L43250 20230
L43290 20210
L43320 20180
L43360 20110
L43390 20020
L43390 19830
L43360 19780
L43340 19760
L43290 19730
L43200 19730
L43150 19760
L43130 19780
L43100 19830
L43100 19950
L43130 19990
L43150 20020
L43200 20040
L43290 20040
L43340 20020
L43360 19990
L43390 19950
" />
<path d="M43580 19780
L43600 19760
L43650 19730
L43770 19730
L43820 19760
L43840 19780
L43860 19830
L43860 19870
L43840 19950
L43550 20230
L43860 20230
" />
</g>
<g style="fill:#000000; fill-opacity:0.0; 
stroke:#000000; stroke-width:0; stroke-opacity:1; 
stroke-linecap:round; stroke-linejoin:round;">
</g>
<g style="fill:#000000; fill-opacity:0.0; 
stroke:#000000; stroke-width:200; stroke-opacity:1; 
stroke-linecap:round; stroke-linejoin:round;">
<polyline fill="none;"
points="34200,24300
35800,24300
" /> 
<polyline fill="none;"
points="34200,23700
35800,23700
" /> 
</g>
<g style="fill:#000000; fill-opacity:0.0; 
stroke:#000000; stroke-width:60; stroke-opacity:1; 
stroke-linecap:round; stroke-linejoin:round;">
<path d="M35000 23600
L35000 22500
" />
<path d="M35000 24400
L35000 25500
" />
<path d="M36580 23730
L36560 23760
L36490 23780
L36440 23780
L36370 23760
L36320 23710
L36300 23660
L36270 23570
L36270 23500
L36300 23400
L36320 23350
L36370 23310
L36440 23280
L36490 23280
L36560 23310
L36580 23330
" />
<path d="M36770 23330
L36800 23310
L36840 23280
L36960 23280
L37010 23310
L37030 23330
L37060 23380
L37060 23420
L37030 23500
L36750 23780
L37060 23780
" />
<path d="M36550 24690
L36270 24690
" />
<path d="M36410 24690
L36410 24190
L36360 24260
L36310 24310
L36270 24330
" />
<path d="M36860 24190
L36910 24190
L36960 24220
L36980 24240
L37000 24290
L37030 24380
L37030 24500
L37000 24600
L36980 24640
L36960 24670
L36910 24690
L36860 24690
L36810 24670
L36790 24640
L36770 24600
L36740 24500
L36740 24380
L36770 24290
L36790 24240
L36810 24220
L36860 24190
" />
<path d="M37340 24190
L37380 24190
L37430 24220
L37460 24240
L37480 24290
L37500 24380
L37500 24500
L37480 24600
L37460 24640
L37430 24670
L37380 24690
L37340 24690
L37290 24670
L37270 24640
L37240 24600
L37220 24500
L37220 24380
L37240 24290
L37270 24240
L37290 24220
L37340 24190
" />
<path d="M37720 24360
L37720 24690
" />
<path d="M37720 24410
L37740 24380
L37790 24360
L37860 24360
L37910 24380
L37930 24430
L37930 24690
" />
<path d="M38340 24430
L38170 24430
" />
<path d="M38170 24690
L38170 24190
L38410 24190
" />
</g>
<g style="fill:#000000; fill-opacity:0.0; 
stroke:#000000; stroke-width:0; stroke-opacity:1; 
stroke-linecap:round; stroke-linejoin:round;">
</g>
<g style="fill:#000000; fill-opacity:0.0; 
stroke:#000000; stroke-width:200; stroke-opacity:1; 
stroke-linecap:round; stroke-linejoin:round;">
<polyline fill="none;"
points="44200,24300
45800,24300
" /> 
<polyline fill="none;"
points="44200,23700
45800,23700
" /> 
</g>
<g style="fill:#000000; fill-opacity:0.0; 
stroke:#000000; stroke-width:60; stroke-opacity:1; 
stroke-linecap:round; stroke-linejoin:round;">
<path d="M45000 23600
L45000 22500
" />
<path d="M45000 24400
L45000 25500
" />
<path d="M43430 24190
L43410 24220
L43340 24240
L43290 24240
L43220 24220
L43170 24170
L43150 24120
L43120 24030
L43120 23960
L43150 23860
L43170 23810
L43220 23770
L43290 23740
L43340 23740
L43410 23770
L43430 23790
" />
<path d="M43600 23740
L43910 23740
L43740 23930
L43810 23930
L43860 23960
L43880 23980
L43910 24030
L43910 24150
L43880 24190
L43860 24220
L43810 24240
L43670 24240
L43620 24220
L43600 24190
" />
<path d="M43410 25240
L43120 25240
" />
<path d="M43260 25240
L43260 24740
L43220 24810
L43170 24860
L43120 24880
" />
<path d="M43840 24910
L43840 25240
" />
<path d="M43620 24910
L43620 25170
L43650 25220
L43690 25240
L43760 25240
L43810 25220
L43840 25190
" />
<path d="M44240 24980
L44070 24980
" />
<path d="M44070 25240
L44070 24740
L44310 24740
" />
<path d="M35000 22500
L35000 21500
" />
</g>
<g style="fill:#000000; fill-opacity:0.0; 
stroke:#000000; stroke-width:0; stroke-opacity:1; 
stroke-linecap:round; stroke-linejoin:round;">
</g>
<g style="fill:#000000; fill-opacity:1.0; 
stroke:#000000; stroke-width:100; stroke-opacity:1; 
stroke-linecap:round; stroke-linejoin:round;">
<circle cx="35000" cy="21500" r="200" /> 
</g>
<g style="fill:#000000; fill-opacity:1.0; 
stroke:#000000; stroke-width:60; stroke-opacity:1; 
stroke-linecap:round; stroke-linejoin:round;">
</g>
<g style="fill:#000000; fill-opacity:0.0; 
stroke:#000000; stroke-width:60; stroke-opacity:1; 
stroke-linecap:round; stroke-linejoin:round;">
<path d="M35000 21500
L37500 21500
" />
<path d="M43500 21500
L45000 21500
" />
<path d="M51500 21500
L51500 23500
" />
<path d="M45000 22500
L45000 21500
" />
</g>
<g style="fill:#000000; fill-opacity:0.0; 
stroke:#000000; stroke-width:0; stroke-opacity:1; 
stroke-linecap:round; stroke-linejoin:round;">
</g>
<g style="fill:#000000; fill-opacity:1.0; 
stroke:#000000; stroke-width:100; stroke-opacity:1; 
stroke-linecap:round; stroke-linejoin:round;">
<circle cx="45000" cy="21500" r="200" /> 
</g>
<g style="fill:#000000; fill-opacity:1.0; 
stroke:#000000; stroke-width:60; stroke-opacity:1; 
stroke-linecap:round; stroke-linejoin:round;">
</g>
<g style="fill:#000000; fill-opacity:0.0; 
stroke:#000000; stroke-width:60; stroke-opacity:1; 
stroke-linecap:round; stroke-linejoin:round;">
<path d="M45000 21500
L51500 21500
" />
<path d="M35000 27000
L39000 27000
" />
<path d="M45000 27000
L45000 25500
" />
<path d="M40500 24500
L40500 27000
" />
</g>
<g style="fill:#000000; fill-opacity:0.0; 
stroke:#000000; stroke-width:0; stroke-opacity:1; 
stroke-linecap:round; stroke-linejoin:round;">
</g>
<g style="fill:#000000; fill-opacity:1.0; 
stroke:#000000; stroke-width:100; stroke-opacity:1; 
stroke-linecap:round; stroke-linejoin:round;">
<circle cx="40500" cy="27000" r="200" /> 
</g>
<g style="fill:#000000; fill-opacity:1.0; 
stroke:#000000; stroke-width:60; stroke-opacity:1; 
stroke-linecap:round; stroke-linejoin:round;">
</g>
<g style="fill:#000000; fill-opacity:0.0; 
stroke:#000000; stroke-width:60; stroke-opacity:1; 
stroke-linecap:round; stroke-linejoin:round;">
<path d="M40500 27000
L45000 27000
" />
</g>
<g style="fill:#000000; fill-opacity:0.0; 
stroke:#000000; stroke-width:0; stroke-opacity:1; 
stroke-linecap:round; stroke-linejoin:round;">
</g>
<g style="fill:#000000; fill-opacity:0.0; 
stroke:#000000; stroke-width:60; stroke-opacity:1; 
stroke-linecap:round; stroke-linejoin:round;">
<polyline fill="none;"
points="51500,42000
51500,42500
52000,42500
51500,43000
51000,42500
51500,42500
" /> 
<path d="M51160 43500
L51120 43470
L51050 43470
L50970 43500
L50930 43540
L50900 43590
L50880 43690
L50880 43760
L50900 43850
L50930 43900
L50970 43950
L51050 43970
L51090 43970
L51160 43950
L51190 43920
L51190 43760
L51090 43760
" />
<path d="M51400 43970
L51400 43470
L51690 43970
L51690 43470
" />
<path d="M51930 43970
L51930 43470
L52050 43470
L52120 43500
L52160 43540
L52190 43590
L52210 43690
L52210 43760
L52190 43850
L52160 43900
L52120 43950
L52050 43970
L51930 43970
" />
<path d="M51500 42000
L51500 41500
" />
</g>
<g style="fill:#000000; fill-opacity:0.0; 
stroke:#000000; stroke-width:0; stroke-opacity:1; 
stroke-linecap:round; stroke-linejoin:round;">
</g>
<g style="fill:#000000; fill-opacity:0.0; 
stroke:#000000; stroke-width:60; stroke-opacity:1; 
stroke-linecap:round; stroke-linejoin:round;">
<polyline fill="none;"
points="39000,27500
39000,28000
39500,28000
39000,28500
38500,28000
39000,28000
" /> 
<path d="M38660 29000
L38620 28970
L38550 28970
L38470 29000
L38430 29040
L38400 29090
L38380 29190
L38380 29260
L38400 29350
L38430 29400
L38470 29450
L38550 29470
L38590 29470
L38660 29450
L38690 29420
L38690 29260
L38590 29260
" />
<path d="M38900 29470
L38900 28970
L39190 29470
L39190 28970
" />
<path d="M39430 29470
L39430 28970
L39550 28970
L39620 29000
L39660 29040
L39690 29090
L39710 29190
L39710 29260
L39690 29350
L39660 29400
L39620 29450
L39550 29470
L39430 29470
" />
<path d="M39000 27500
L39000 27000
" />
</g>
<g style="fill:#000000; fill-opacity:0.0; 
stroke:#000000; stroke-width:0; stroke-opacity:1; 
stroke-linecap:round; stroke-linejoin:round;">
</g>
<g style="fill:#000000; fill-opacity:1.0; 
stroke:#000000; stroke-width:100; stroke-opacity:1; 
stroke-linecap:round; stroke-linejoin:round;">
<circle cx="39000" cy="27000" r="200" /> 
</g>
<g style="fill:#000000; fill-opacity:1.0; 
stroke:#000000; stroke-width:60; stroke-opacity:1; 
stroke-linecap:round; stroke-linejoin:round;">
</g>
<g style="fill:#000000; fill-opacity:0.0; 
stroke:#000000; stroke-width:60; stroke-opacity:1; 
stroke-linecap:round; stroke-linejoin:round;">
<path d="M39000 27000
L40500 27000
" />
<path d="M35000 25500
L35000 27000
" />
</g>
<g style="fill:#000000; fill-opacity:0.0; 
stroke:#000000; stroke-width:0; stroke-opacity:1; 
stroke-linecap:round; stroke-linejoin:round;">
</g>
<g style="fill:#000000; fill-opacity:0.0; 
stroke:#000000; stroke-width:100; stroke-opacity:1; 
stroke-linecap:round; stroke-linejoin:round;">
<rect x="26500" y="21000" width="1000" height="2000" rx="0" />
</g>
<g style="fill:#000000; fill-opacity:0.0; 
stroke:#000000; stroke-width:60; stroke-opacity:1; 
stroke-linecap:round; stroke-linejoin:round;">
<circle cx="27000" cy="22500" r="250" /> 
<circle cx="27000" cy="21500" r="250" /> 
<polyline fill="none;"
points="27210,22370
26870,22700
" /> 
<polyline fill="none;"
points="27210,21370
26870,21700
" /> 
<polyline fill="none;"
points="27140,22300
26800,22630
" /> 
<polyline fill="none;"
points="27140,21300
26800,21630
" /> 
<path d="M27500 21500
L29000 21500
" />
<path d="M28390 21370
L28100 21370
" />
<path d="M28250 21370
L28250 20870
L28200 20940
L28150 20990
L28100 21010
" />
<path d="M27500 22500
L29000 22500
" />
<path d="M28100 21920
L28130 21900
L28170 21870
L28290 21870
L28340 21900
L28360 21920
L28390 21970
L28390 22010
L28360 22090
L28080 22370
L28390 22370
" />
<path d="M27630 19070
L27630 19430
L27600 19500
L27560 19550
L27490 19570
L27440 19570
" />
<path d="M27840 19120
L27870 19100
L27910 19070
L28030 19070
L28080 19100
L28100 19120
L28130 19170
L28130 19210
L28100 19290
L27820 19570
L28130 19570
" />
<path d="M27300 19980
L27300 20390
L27320 20430
L27340 20460
L27390 20480
L27490 20480
L27540 20460
L27560 20430
L27580 20390
L27580 19980
" />
<path d="M27820 20480
L27820 20150
" />
<path d="M27820 19980
L27800 20010
L27820 20030
L27840 20010
L27820 19980
L27820 20030
" />
<path d="M28060 20150
L28060 20480
" />
<path d="M28060 20200
L28080 20170
L28130 20150
L28200 20150
L28250 20170
L28270 20220
L28270 20480
" />
<path d="M29000 21500
L32500 21500
" />
<path d="M29000 22500
L31000 22500
" />
<path d="M31000 22500
L31000 27000
" />
<path d="M31000 27000
L35000 27000
" />
</g>
<g style="fill:#000000; fill-opacity:0.0; 
stroke:#000000; stroke-width:0; stroke-opacity:1; 
stroke-linecap:round; stroke-linejoin:round;">
</g>
<g style="fill:#000000; fill-opacity:1.0; 
stroke:#000000; stroke-width:100; stroke-opacity:1; 
stroke-linecap:round; stroke-linejoin:round;">
<circle cx="35000" cy="27000" r="200" /> 
</g>
<g style="fill:#000000; fill-opacity:1.0; 
stroke:#000000; stroke-width:0; stroke-opacity:1; 
stroke-linecap:round; stroke-linejoin:round;">
</g>
<g style="fill:#000000; fill-opacity:0.0; 
stroke:#000000; stroke-width:60; stroke-opacity:1; 
stroke-linecap:round; stroke-linejoin:round;">
<polyline fill="none;"
points="32200,20500
32500,20000
" /> 
<polyline fill="none;"
points="32500,21000
32500,20000
" /> 
<polyline fill="none;"
points="32500,20000
32800,20500
" /> 
<path d="M31760 19320
L32150 19320
" />
<path d="M31950 19510
L31950 19130
" />
<path d="M32650 19510
L32360 19510
" />
<path d="M32500 19510
L32500 19010
L32450 19080
L32410 19130
L32360 19150
" />
<path d="M32840 19060
L32860 19040
L32910 19010
L33030 19010
L33070 19040
L33100 19060
L33120 19110
L33120 19150
L33100 19230
L32810 19510
L33120 19510
" />
<path d="M33260 19010
L33430 19510
L33600 19010
" />
<path d="M32500 21000
L32500 21500
" />
</g>
<g style="fill:#000000; fill-opacity:0.0; 
stroke:#000000; stroke-width:0; stroke-opacity:1; 
stroke-linecap:round; stroke-linejoin:round;">
</g>
<g style="fill:#000000; fill-opacity:1.0; 
stroke:#000000; stroke-width:100; stroke-opacity:1; 
stroke-linecap:round; stroke-linejoin:round;">
<circle cx="32500" cy="21500" r="200" /> 
</g>
<g style="fill:#000000; fill-opacity:1.0; 
stroke:#000000; stroke-width:60; stroke-opacity:1; 
stroke-linecap:round; stroke-linejoin:round;">
</g>
<g style="fill:#000000; fill-opacity:0.0; 
stroke:#000000; stroke-width:60; stroke-opacity:1; 
stroke-linecap:round; stroke-linejoin:round;">
<path d="M32500 21500
L35000 21500
" />
</g>
<g style="fill:#000000; fill-opacity:0.0; 
stroke:#000000; stroke-width:0; stroke-opacity:1; 
stroke-linecap:round; stroke-linejoin:round;">
</g>
<g style="fill:#000000; fill-opacity:0.0; 
stroke:#000000; stroke-width:60; stroke-opacity:1; 
stroke-linecap:round; stroke-linejoin:round;">
<polyline fill="none;"
points="51200,20500
51500,20000
" /> 
<polyline fill="none;"
points="51500,21000
51500,20000
" /> 
<polyline fill="none;"
points="51500,20000
51800,20500
" /> 
<path d="M51000 19320
L51380 19320
" />
<path d="M51190 19510
L51190 19130
" />
<path d="M51860 19010
L51620 19010
L51600 19250
L51620 19230
L51670 19200
L51790 19200
L51840 19230
L51860 19250
L51880 19300
L51880 19420
L51860 19460
L51840 19490
L51790 19510
L51670 19510
L51620 19490
L51600 19460
" />
<path d="M52030 19010
L52190 19510
L52360 19010
" />
<path d="M51500 21000
L51500 21500
" />
</g>
<g style="fill:#000000; fill-opacity:0.0; 
stroke:#000000; stroke-width:0; stroke-opacity:1; 
stroke-linecap:round; stroke-linejoin:round;">
</g>
<g style="fill:#000000; fill-opacity:1.0; 
stroke:#000000; stroke-width:100; stroke-opacity:1; 
stroke-linecap:round; stroke-linejoin:round;">
<circle cx="51500" cy="21500" r="200" /> 
</g>
<g style="fill:#000000; fill-opacity:1.0; 
stroke:#000000; stroke-width:0; stroke-opacity:1; 
stroke-linecap:round; stroke-linejoin:round;">
</g>
<g style="fill:#000000; fill-opacity:0.0; 
stroke:#000000; stroke-width:100; stroke-opacity:1; 
stroke-linecap:round; stroke-linejoin:round;">
<rect x="65500" y="34000" width="5000" height="6000" rx="0" />
</g>
<g style="fill:#000000; fill-opacity:0.0; 
stroke:#000000; stroke-width:60; stroke-opacity:1; 
stroke-linecap:round; stroke-linejoin:round;">
<rect x="68950" y="39700" width="100" height="300" rx="0" />
<rect x="68950" y="34000" width="100" height="300" rx="0" />
<rect x="65500" y="38450" width="300" height="100" rx="0" />
<rect x="65500" y="37450" width="300" height="100" rx="0" />
<rect x="65500" y="36450" width="300" height="100" rx="0" />
<rect x="65500" y="35450" width="300" height="100" rx="0" />
<path d="M65500 36500
L64000 36500
" />
<path d="M66040 36720
L66040 36220
L66210 36580
L66380 36220
L66380 36720
" />
<path d="M66710 36220
L66810 36220
L66850 36250
L66900 36290
L66930 36390
L66930 36550
L66900 36650
L66850 36700
L66810 36720
L66710 36720
L66660 36700
L66620 36650
L66590 36550
L66590 36390
L66620 36290
L66660 36250
L66710 36220
" />
<path d="M67120 36700
L67190 36720
L67310 36720
L67350 36700
L67380 36670
L67400 36630
L67400 36580
L67380 36530
L67350 36510
L67310 36480
L67210 36460
L67160 36440
L67140 36410
L67120 36360
L67120 36320
L67140 36270
L67160 36250
L67210 36220
L67330 36220
L67400 36250
" />
<path d="M67620 36720
L67620 36220
" />
<path d="M64890 36370
L64600 36370
" />
<path d="M64750 36370
L64750 35870
L64700 35940
L64650 35990
L64600 36010
" />
<path d="M69000 40000
L69000 41500
" />
<path d="M68750 39180
L68720 39230
L68720 39300
L68750 39370
L68790 39420
L68840 39450
L68940 39470
L69010 39470
L69100 39450
L69150 39420
L69200 39370
L69220 39300
L69220 39260
L69200 39180
L69170 39160
L69010 39160
L69010 39260
" />
<path d="M69220 38950
L68720 38950
L69220 38660
L68720 38660
" />
<path d="M69220 38420
L68720 38420
L68720 38300
L68750 38230
L68790 38180
L68840 38160
L68940 38140
L69010 38140
L69100 38160
L69150 38180
L69200 38230
L69220 38300
L69220 38420
" />
<path d="M68870 40840
L68870 41130
" />
<path d="M68870 40980
L68370 40980
L68440 41030
L68490 41080
L68510 41130
" />
<path d="M68370 40530
L68370 40480
L68400 40440
L68420 40410
L68470 40390
L68560 40360
L68680 40360
L68780 40390
L68820 40410
L68850 40440
L68870 40480
L68870 40530
L68850 40580
L68820 40600
L68780 40630
L68680 40650
L68560 40650
L68470 40630
L68420 40600
L68400 40580
L68370 40530
" />
<path d="M69000 34000
L69000 32500
" />
<path d="M68720 35810
L69220 35640
L68720 35470
" />
<path d="M69170 35020
L69200 35040
L69220 35120
L69220 35160
L69200 35230
L69150 35280
L69100 35310
L69010 35330
L68940 35330
L68840 35310
L68790 35280
L68750 35230
L68720 35160
L68720 35120
L68750 35040
L68770 35020
" />
<path d="M69170 34520
L69200 34540
L69220 34620
L69220 34660
L69200 34730
L69150 34780
L69100 34810
L69010 34830
L68940 34830
L68840 34810
L68790 34780
L68750 34730
L68720 34660
L68720 34620
L68750 34540
L68770 34520
" />
<path d="M68420 33390
L68400 33360
L68370 33320
L68370 33200
L68400 33150
L68420 33130
L68470 33100
L68510 33100
L68590 33130
L68870 33410
L68870 33100
" />
<path d="M65500 38500
L64000 38500
" />
<path d="M65930 38080
L66430 38080
" />
<path d="M66330 38720
L66160 38480
" />
<path d="M66040 38720
L66040 38220
L66230 38220
L66280 38250
L66310 38270
L66330 38320
L66330 38390
L66310 38440
L66280 38460
L66230 38480
L66040 38480
" />
<path d="M66430 38080
L66900 38080
" />
<path d="M66520 38700
L66590 38720
L66710 38720
L66760 38700
L66780 38670
L66810 38630
L66810 38580
L66780 38530
L66760 38510
L66710 38480
L66620 38460
L66570 38440
L66540 38410
L66520 38360
L66520 38320
L66540 38270
L66570 38250
L66620 38220
L66730 38220
L66810 38250
" />
<path d="M66900 38080
L67280 38080
" />
<path d="M66950 38220
L67230 38220
" />
<path d="M67090 38720
L67090 38220
" />
<path d="M64860 37870
L64630 37870
L64600 38110
L64630 38090
L64670 38060
L64790 38060
L64840 38090
L64860 38110
L64890 38160
L64890 38280
L64860 38320
L64840 38350
L64790 38370
L64670 38370
L64630 38350
L64600 38320
" />
<path d="M65500 37500
L64000 37500
" />
<path d="M66020 37700
L66090 37720
L66210 37720
L66260 37700
L66280 37670
L66310 37630
L66310 37580
L66280 37530
L66260 37510
L66210 37480
L66120 37460
L66070 37440
L66040 37410
L66020 37360
L66020 37320
L66040 37270
L66070 37250
L66120 37220
L66230 37220
L66310 37250
" />
<path d="M66810 37670
L66780 37700
L66710 37720
L66660 37720
L66590 37700
L66540 37650
L66520 37600
L66500 37510
L66500 37440
L66520 37340
L66540 37290
L66590 37250
L66660 37220
L66710 37220
L66780 37250
L66810 37270
" />
<path d="M67020 37720
L67020 37220
" />
<path d="M67310 37720
L67090 37440
" />
<path d="M67310 37220
L67020 37510
" />
<path d="M64580 36870
L64910 36870
L64700 37370
" />
<path d="M65500 35500
L64000 35500
" />
<path d="M66040 35720
L66040 35220
L66210 35580
L66380 35220
L66380 35720
" />
<path d="M66620 35720
L66620 35220
" />
<path d="M66830 35700
L66900 35720
L67020 35720
L67070 35700
L67090 35670
L67120 35630
L67120 35580
L67090 35530
L67070 35510
L67020 35480
L66930 35460
L66880 35440
L66850 35410
L66830 35360
L66830 35320
L66850 35270
L66880 35250
L66930 35220
L67040 35220
L67120 35250
" />
<path d="M67430 35220
L67520 35220
L67570 35250
L67620 35290
L67640 35390
L67640 35550
L67620 35650
L67570 35700
L67520 35720
L67430 35720
L67380 35700
L67330 35650
L67310 35550
L67310 35390
L67330 35290
L67380 35250
L67430 35220
" />
<path d="M64650 35370
L64750 35370
L64790 35350
L64820 35320
L64860 35250
L64890 35160
L64890 34970
L64860 34920
L64840 34900
L64790 34870
L64700 34870
L64650 34900
L64630 34920
L64600 34970
L64600 35090
L64630 35130
L64650 35160
L64700 35180
L64790 35180
L64840 35160
L64860 35130
L64890 35090
" />
<path d="M71080 36280
L71080 36640
L71050 36710
L71010 36760
L70940 36780
L70890 36780
" />
<path d="M71550 36280
L71320 36280
L71290 36520
L71320 36500
L71360 36470
L71480 36470
L71530 36500
L71550 36520
L71580 36570
L71580 36690
L71550 36730
L71530 36760
L71480 36780
L71360 36780
L71320 36760
L71290 36730
" />
<path d="M70910 37550
L71150 37550
" />
<path d="M70860 37690
L71030 37190
L71200 37690
" />
<path d="M71290 37190
L71460 37690
L71620 37190
" />
<path d="M72080 37690
L71910 37450
" />
<path d="M71790 37690
L71790 37190
L71980 37190
L72030 37220
L72050 37240
L72080 37290
L72080 37360
L72050 37410
L72030 37430
L71980 37450
L71790 37450
" />
<path d="M72290 37500
L72670 37500
" />
<path d="M72910 37690
L72910 37190
" />
<path d="M73120 37670
L73190 37690
L73310 37690
L73360 37670
L73390 37640
L73410 37600
L73410 37550
L73390 37500
L73360 37480
L73310 37450
L73220 37430
L73170 37410
L73150 37380
L73120 37330
L73120 37290
L73150 37240
L73170 37220
L73220 37190
L73340 37190
L73410 37220
" />
<path d="M73620 37690
L73620 37190
L73810 37190
L73860 37220
L73890 37240
L73910 37290
L73910 37360
L73890 37410
L73860 37430
L73810 37450
L73620 37450
" />
<path d="M74120 37500
L74500 37500
" />
<path d="M75000 37690
L74720 37690
" />
<path d="M74860 37690
L74860 37190
L74810 37260
L74770 37310
L74720 37330
" />
<path d="M75310 37190
L75360 37190
L75410 37220
L75430 37240
L75460 37290
L75480 37380
L75480 37500
L75460 37600
L75430 37640
L75410 37670
L75360 37690
L75310 37690
L75270 37670
L75240 37640
L75220 37600
L75190 37500
L75190 37380
L75220 37290
L75240 37240
L75270 37220
L75310 37190
" />
<path d="M64000 38500
L57500 38500
" />
<path d="M64000 37500
L62500 37500
" />
<path d="M62500 37500
L62500 30500
" />
<path d="M62500 30500
L57500 30500
" />
<path d="M64000 35500
L61500 35500
" />
<path d="M61500 35500
L61500 31500
" />
<path d="M61500 31500
L57500 31500
" />
<path d="M57500 32500
L60500 32500
" />
<path d="M60500 32500
L60500 36500
" />
<path d="M60500 36500
L64000 36500
" />
</g>
<g style="fill:#000000; fill-opacity:0.0; 
stroke:#000000; stroke-width:0; stroke-opacity:1; 
stroke-linecap:round; stroke-linejoin:round;">
</g>
<g style="fill:#000000; fill-opacity:0.0; 
stroke:#000000; stroke-width:60; stroke-opacity:1; 
stroke-linecap:round; stroke-linejoin:round;">
<polyline fill="none;"
points="68700,31500
69000,31000
" /> 
<polyline fill="none;"
points="69000,32000
69000,31000
" /> 
<polyline fill="none;"
points="69000,31000
69300,31500
" /> 
<path d="M68500 30320
L68880 30320
" />
<path d="M68690 30510
L68690 30130
" />
<path d="M69360 30010
L69120 30010
L69100 30250
L69120 30230
L69170 30200
L69290 30200
L69340 30230
L69360 30250
L69380 30300
L69380 30420
L69360 30460
L69340 30490
L69290 30510
L69170 30510
L69120 30490
L69100 30460
" />
<path d="M69530 30010
L69690 30510
L69860 30010
" />
</g>
<g style="fill:#000000; fill-opacity:0.0; 
stroke:#000000; stroke-width:0; stroke-opacity:1; 
stroke-linecap:round; stroke-linejoin:round;">
</g>
<g style="fill:#000000; fill-opacity:0.0; 
stroke:#000000; stroke-width:60; stroke-opacity:1; 
stroke-linecap:round; stroke-linejoin:round;">
<polyline fill="none;"
points="69000,42000
69000,42500
69500,42500
69000,43000
68500,42500
69000,42500
" /> 
<path d="M68660 43500
L68620 43470
L68550 43470
L68470 43500
L68430 43540
L68400 43590
L68380 43690
L68380 43760
L68400 43850
L68430 43900
L68470 43950
L68550 43970
L68590 43970
L68660 43950
L68690 43920
L68690 43760
L68590 43760
" />
<path d="M68900 43970
L68900 43470
L69190 43970
L69190 43470
" />
<path d="M69430 43970
L69430 43470
L69550 43470
L69620 43500
L69660 43540
L69690 43590
L69710 43690
L69710 43760
L69690 43850
L69660 43900
L69620 43950
L69550 43970
L69430 43970
" />
<path d="M69000 42000
L69000 41500
" />
<path d="M69000 32500
L69000 32000
" />
<path d="M57260 35260
L57740 35740
" />
<path d="M57740 35260
L57260 35740
" />
<path d="M57260 36260
L57740 36740
" />
<path d="M57740 36260
L57260 36740
" />
</g>
<g style="fill:#000000; fill-opacity:0.0; 
stroke:#000000; stroke-width:0; stroke-opacity:1; 
stroke-linecap:round; stroke-linejoin:round;">
</g>
<g style="fill:#000000; fill-opacity:0.0; 
stroke:#000000; stroke-width:100; stroke-opacity:1; 
stroke-linecap:round; stroke-linejoin:round;">
<rect x="67100" y="19500" width="800" height="2000" rx="0" />
</g>
<g style="fill:#000000; fill-opacity:0.0; 
stroke:#000000; stroke-width:60; stroke-opacity:1; 
stroke-linecap:round; stroke-linejoin:round;">
<path d="M67500 19500
L67500 19000
" />
<path d="M67500 21500
L67500 22000
" />
<path d="M68630 20280
L68470 20040
" />
<path d="M68350 20280
L68350 19780
L68540 19780
L68580 19810
L68610 19830
L68630 19880
L68630 19950
L68610 20000
L68580 20020
L68540 20040
L68350 20040
" />
<path d="M68800 19780
L69110 19780
L68940 19970
L69010 19970
L69060 20000
L69080 20020
L69110 20070
L69110 20190
L69080 20230
L69060 20260
L69010 20280
L68870 20280
L68820 20260
L68800 20230
" />
<path d="M68320 20740
L68350 20720
L68390 20690
L68510 20690
L68560 20720
L68580 20740
L68610 20790
L68610 20830
L68580 20910
L68300 21190
L68610 21190
" />
<path d="M68820 21190
L68820 20690
" />
<path d="M69110 21190
L68890 20910
" />
<path d="M69110 20690
L68820 20980
" />
</g>
<g style="fill:#000000; fill-opacity:0.0; 
stroke:#000000; stroke-width:0; stroke-opacity:1; 
stroke-linecap:round; stroke-linejoin:round;">
</g>
<g style="fill:#000000; fill-opacity:0.0; 
stroke:#000000; stroke-width:100; stroke-opacity:1; 
stroke-linecap:round; stroke-linejoin:round;">
<rect x="79000" y="18000" width="1000" height="2000" rx="0" />
</g>
<g style="fill:#000000; fill-opacity:0.0; 
stroke:#000000; stroke-width:60; stroke-opacity:1; 
stroke-linecap:round; stroke-linejoin:round;">
<circle cx="79500" cy="19500" r="250" /> 
<circle cx="79500" cy="18500" r="250" /> 
<polyline fill="none;"
points="79290,19370
79630,19700
" /> 
<polyline fill="none;"
points="79290,18370
79630,18700
" /> 
<polyline fill="none;"
points="79360,19300
79700,19630
" /> 
<polyline fill="none;"
points="79360,18300
79700,18630
" /> 
<path d="M79000 18500
L77500 18500
" />
<path d="M78390 18370
L78100 18370
" />
<path d="M78250 18370
L78250 17870
L78200 17940
L78150 17990
L78100 18010
" />
<path d="M79000 19500
L77500 19500
" />
<path d="M78100 18920
L78130 18900
L78170 18870
L78290 18870
L78340 18900
L78360 18920
L78390 18970
L78390 19010
L78360 19090
L78080 19370
L78390 19370
" />
<path d="M80580 18320
L80580 18680
L80550 18750
L80510 18800
L80440 18820
L80390 18820
" />
<path d="M81080 18820
L80790 18820
" />
<path d="M80940 18820
L80940 18320
L80890 18390
L80840 18440
L80790 18460
" />
<path d="M80430 19230
L80430 19640
L80460 19680
L80480 19710
L80530 19730
L80620 19730
L80670 19710
L80700 19680
L80720 19640
L80720 19230
" />
<path d="M80890 19400
L81080 19400
" />
<path d="M80960 19730
L80960 19300
L80980 19260
L81030 19230
L81080 19230
" />
<path d="M81240 19730
L81240 19230
" />
<path d="M81240 19420
L81290 19400
L81390 19400
L81430 19420
L81460 19450
L81480 19490
L81480 19640
L81460 19680
L81430 19710
L81390 19730
L81290 19730
L81240 19710
" />
</g>
<g style="fill:#000000; fill-opacity:0.0; 
stroke:#000000; stroke-width:0; stroke-opacity:1; 
stroke-linecap:round; stroke-linejoin:round;">
</g>
<g style="fill:#000000; fill-opacity:0.0; 
stroke:#000000; stroke-width:80; stroke-opacity:1; 
stroke-linecap:round; stroke-linejoin:round;">
<polyline fill="none;"
points="71000,20000
70000,20000
" /> 
</g>
<g style="fill:#000000; fill-opacity:0.0; 
stroke:#000000; stroke-width:60; stroke-opacity:1; 
stroke-linecap:round; stroke-linejoin:round;">
<polyline fill="none;"
points="70500,21000
70500,20000
" /> 
</g>
<g style="fill:#000000; fill-opacity:0.0; 
stroke:#000000; stroke-width:80; stroke-opacity:1; 
stroke-linecap:round; stroke-linejoin:round;">
<polyline fill="none;"
points="71000,21000
70000,21000
70500,20000
71000,21000
" /> 
</g>
<g style="fill:#000000; fill-opacity:0.0; 
stroke:#000000; stroke-width:60; stroke-opacity:1; 
stroke-linecap:round; stroke-linejoin:round;">
<path d="M70500 20000
L70500 19000
" />
<path d="M70500 21000
L70500 22000
" />
<path d="M71440 20280
L71440 19780
L71560 19780
L71630 19810
L71670 19850
L71700 19900
L71720 20000
L71720 20070
L71700 20160
L71670 20210
L71630 20260
L71560 20280
L71440 20280
" />
<path d="M71910 19830
L71940 19810
L71980 19780
L72100 19780
L72150 19810
L72170 19830
L72200 19880
L72200 19920
L72170 20000
L71890 20280
L72200 20280
" />
<path d="M71400 21170
L71480 21190
L71590 21190
L71640 21170
L71670 21140
L71690 21100
L71690 21050
L71670 21000
L71640 20980
L71590 20950
L71500 20930
L71450 20910
L71430 20880
L71400 20830
L71400 20790
L71430 20740
L71450 20720
L71500 20690
L71620 20690
L71690 20720
" />
<path d="M71900 21190
L71900 20690
L72070 21050
L72240 20690
L72240 21190
" />
<path d="M72690 20860
L72690 21190
" />
<path d="M72570 20670
L72450 21020
L72760 21020
" />
<path d="M73050 20690
L73090 20690
L73140 20720
L73170 20740
L73190 20790
L73210 20880
L73210 21000
L73190 21100
L73170 21140
L73140 21170
L73090 21190
L73050 21190
L73000 21170
L72980 21140
L72950 21100
L72930 21000
L72930 20880
L72950 20790
L72980 20740
L73000 20720
L73050 20690
" />
<path d="M73520 20690
L73570 20690
L73620 20720
L73640 20740
L73670 20790
L73690 20880
L73690 21000
L73670 21100
L73640 21140
L73620 21170
L73570 21190
L73520 21190
L73480 21170
L73450 21140
L73430 21100
L73400 21000
L73400 20880
L73430 20790
L73450 20740
L73480 20720
L73520 20690
" />
<path d="M73860 20690
L74190 20690
L73980 21190
" />
</g>
<g style="fill:#000000; fill-opacity:0.0; 
stroke:#000000; stroke-width:0; stroke-opacity:1; 
stroke-linecap:round; stroke-linejoin:round;">
</g>
<g style="fill:#000000; fill-opacity:0.0; 
stroke:#000000; stroke-width:100; stroke-opacity:1; 
stroke-linecap:round; stroke-linejoin:round;">
<rect x="73000" y="18100" width="2000" height="800" rx="0" />
</g>
<g style="fill:#000000; fill-opacity:0.0; 
stroke:#000000; stroke-width:60; stroke-opacity:1; 
stroke-linecap:round; stroke-linejoin:round;">
<path d="M73000 18500
L72500 18500
" />
<path d="M75000 18500
L75500 18500
" />
<path d="M73910 16670
L73750 16430
" />
<path d="M73630 16670
L73630 16170
L73820 16170
L73860 16200
L73890 16220
L73910 16270
L73910 16340
L73890 16390
L73860 16410
L73820 16430
L73630 16430
" />
<path d="M74100 16220
L74130 16200
L74170 16170
L74290 16170
L74340 16200
L74360 16220
L74390 16270
L74390 16310
L74360 16390
L74080 16670
L74390 16670
" />
<path d="M73350 17130
L73380 17110
L73430 17080
L73540 17080
L73590 17110
L73620 17130
L73640 17180
L73640 17220
L73620 17300
L73330 17580
L73640 17580
" />
<path d="M73950 17080
L74000 17080
L74040 17110
L74070 17130
L74090 17180
L74120 17270
L74120 17390
L74090 17490
L74070 17530
L74040 17560
L74000 17580
L73950 17580
L73900 17560
L73880 17530
L73850 17490
L73830 17390
L73830 17270
L73850 17180
L73880 17130
L73900 17110
L73950 17080
" />
<path d="M74330 17580
L74330 17080
" />
<path d="M74620 17580
L74400 17300
" />
<path d="M74620 17080
L74330 17370
" />
</g>
<g style="fill:#000000; fill-opacity:0.0; 
stroke:#000000; stroke-width:0; stroke-opacity:1; 
stroke-linecap:round; stroke-linejoin:round;">
</g>
<g style="fill:#000000; fill-opacity:0.0; 
stroke:#000000; stroke-width:100; stroke-opacity:1; 
stroke-linecap:round; stroke-linejoin:round;">
<rect x="64000" y="18100" width="2000" height="800" rx="0" />
</g>
<g style="fill:#000000; fill-opacity:0.0; 
stroke:#000000; stroke-width:60; stroke-opacity:1; 
stroke-linecap:round; stroke-linejoin:round;">
<path d="M66000 18500
L66500 18500
" />
<path d="M64000 18500
L63500 18500
" />
<path d="M64910 16670
L64750 16430
" />
<path d="M64630 16670
L64630 16170
L64820 16170
L64860 16200
L64890 16220
L64910 16270
L64910 16340
L64890 16390
L64860 16410
L64820 16430
L64630 16430
" />
<path d="M65390 16670
L65100 16670
" />
<path d="M65250 16670
L65250 16170
L65200 16240
L65150 16290
L65100 16310
" />
<path d="M64600 17130
L64630 17110
L64670 17080
L64790 17080
L64840 17110
L64860 17130
L64890 17180
L64890 17220
L64860 17300
L64580 17580
L64890 17580
" />
<path d="M65100 17580
L65100 17080
" />
<path d="M65390 17580
L65170 17300
" />
<path d="M65390 17080
L65100 17370
" />
</g>
<g style="fill:#000000; fill-opacity:0.0; 
stroke:#000000; stroke-width:0; stroke-opacity:1; 
stroke-linecap:round; stroke-linejoin:round;">
</g>
<g style="fill:#000000; fill-opacity:0.0; 
stroke:#000000; stroke-width:200; stroke-opacity:1; 
stroke-linecap:round; stroke-linejoin:round;">
<polyline fill="none;"
points="61200,20800
62800,20800
" /> 
<polyline fill="none;"
points="61200,20200
62800,20200
" /> 
</g>
<g style="fill:#000000; fill-opacity:0.0; 
stroke:#000000; stroke-width:60; stroke-opacity:1; 
stroke-linecap:round; stroke-linejoin:round;">
<path d="M62000 20100
L62000 19000
" />
<path d="M62000 20900
L62000 22000
" />
<path d="M63580 20230
L63560 20260
L63490 20280
L63440 20280
L63370 20260
L63320 20210
L63300 20160
L63270 20070
L63270 20000
L63300 19900
L63320 19850
L63370 19810
L63440 19780
L63490 19780
L63560 19810
L63580 19830
" />
<path d="M64060 20280
L63770 20280
" />
<path d="M63920 20280
L63920 19780
L63870 19850
L63820 19900
L63770 19920
" />
<path d="M63550 21190
L63270 21190
" />
<path d="M63410 21190
L63410 20690
L63360 20760
L63310 20810
L63270 20830
" />
<path d="M63860 20690
L63910 20690
L63960 20720
L63980 20740
L64000 20790
L64030 20880
L64030 21000
L64000 21100
L63980 21140
L63960 21170
L63910 21190
L63860 21190
L63810 21170
L63790 21140
L63770 21100
L63740 21000
L63740 20880
L63770 20790
L63790 20740
L63810 20720
L63860 20690
" />
<path d="M64340 20690
L64380 20690
L64430 20720
L64460 20740
L64480 20790
L64500 20880
L64500 21000
L64480 21100
L64460 21140
L64430 21170
L64380 21190
L64340 21190
L64290 21170
L64270 21140
L64240 21100
L64220 21000
L64220 20880
L64240 20790
L64270 20740
L64290 20720
L64340 20690
" />
<path d="M64720 20860
L64720 21190
" />
<path d="M64720 20910
L64740 20880
L64790 20860
L64860 20860
L64910 20880
L64930 20930
L64930 21190
" />
<path d="M65340 20930
L65170 20930
" />
<path d="M65170 21190
L65170 20690
L65410 20690
" />
<path d="M66500 18500
L67500 18500
" />
<path d="M67500 19000
L67500 18500
" />
<path d="M62000 22000
L62000 22500
" />
<path d="M62000 22500
L67500 22500
" />
<path d="M67500 22000
L67500 22500
" />
</g>
<g style="fill:#000000; fill-opacity:0.0; 
stroke:#000000; stroke-width:0; stroke-opacity:1; 
stroke-linecap:round; stroke-linejoin:round;">
</g>
<g style="fill:#000000; fill-opacity:1.0; 
stroke:#000000; stroke-width:100; stroke-opacity:1; 
stroke-linecap:round; stroke-linejoin:round;">
<circle cx="67500" cy="18500" r="200" /> 
</g>
<g style="fill:#000000; fill-opacity:1.0; 
stroke:#000000; stroke-width:0; stroke-opacity:1; 
stroke-linecap:round; stroke-linejoin:round;">
</g>
<g style="fill:#000000; fill-opacity:0.0; 
stroke:#000000; stroke-width:80; stroke-opacity:1; 
stroke-linecap:round; stroke-linejoin:round;">
<polyline fill="none;"
points="70000,16000
69000,16000
" /> 
</g>
<g style="fill:#000000; fill-opacity:0.0; 
stroke:#000000; stroke-width:60; stroke-opacity:1; 
stroke-linecap:round; stroke-linejoin:round;">
<polyline fill="none;"
points="69500,17000
69500,16000
" /> 
</g>
<g style="fill:#000000; fill-opacity:0.0; 
stroke:#000000; stroke-width:80; stroke-opacity:1; 
stroke-linecap:round; stroke-linejoin:round;">
<polyline fill="none;"
points="70000,17000
69000,17000
69500,16000
70000,17000
" /> 
</g>
<g style="fill:#000000; fill-opacity:0.0; 
stroke:#000000; stroke-width:60; stroke-opacity:1; 
stroke-linecap:round; stroke-linejoin:round;">
<path d="M69500 16000
L69500 15000
" />
<path d="M69500 17000
L69500 18000
" />
<path d="M70440 16280
L70440 15780
L70560 15780
L70630 15810
L70670 15850
L70700 15900
L70720 16000
L70720 16070
L70700 16160
L70670 16210
L70630 16260
L70560 16280
L70440 16280
" />
<path d="M71200 16280
L70910 16280
" />
<path d="M71060 16280
L71060 15780
L71010 15850
L70960 15900
L70910 15920
" />
<path d="M70400 17170
L70480 17190
L70590 17190
L70640 17170
L70670 17140
L70690 17100
L70690 17050
L70670 17000
L70640 16980
L70590 16950
L70500 16930
L70450 16910
L70430 16880
L70400 16830
L70400 16790
L70430 16740
L70450 16720
L70500 16690
L70620 16690
L70690 16720
" />
<path d="M70900 17190
L70900 16690
L71070 17050
L71240 16690
L71240 17190
" />
<path d="M71690 16860
L71690 17190
" />
<path d="M71570 16670
L71450 17020
L71760 17020
" />
<path d="M72050 16690
L72090 16690
L72140 16720
L72170 16740
L72190 16790
L72210 16880
L72210 17000
L72190 17100
L72170 17140
L72140 17170
L72090 17190
L72050 17190
L72000 17170
L71980 17140
L71950 17100
L71930 17000
L71930 16880
L71950 16790
L71980 16740
L72000 16720
L72050 16690
" />
<path d="M72520 16690
L72570 16690
L72620 16720
L72640 16740
L72670 16790
L72690 16880
L72690 17000
L72670 17100
L72640 17140
L72620 17170
L72570 17190
L72520 17190
L72480 17170
L72450 17140
L72430 17100
L72400 17000
L72400 16880
L72430 16790
L72450 16740
L72480 16720
L72520 16690
" />
<path d="M72860 16690
L73190 16690
L72980 17190
" />
<path d="M75500 18500
L77500 18500
" />
<path d="M70500 19000
L70500 18500
" />
</g>
<g style="fill:#000000; fill-opacity:0.0; 
stroke:#000000; stroke-width:0; stroke-opacity:1; 
stroke-linecap:round; stroke-linejoin:round;">
</g>
<g style="fill:#000000; fill-opacity:1.0; 
stroke:#000000; stroke-width:100; stroke-opacity:1; 
stroke-linecap:round; stroke-linejoin:round;">
<circle cx="70500" cy="18500" r="200" /> 
</g>
<g style="fill:#000000; fill-opacity:1.0; 
stroke:#000000; stroke-width:60; stroke-opacity:1; 
stroke-linecap:round; stroke-linejoin:round;">
</g>
<g style="fill:#000000; fill-opacity:0.0; 
stroke:#000000; stroke-width:60; stroke-opacity:1; 
stroke-linecap:round; stroke-linejoin:round;">
<path d="M70500 18500
L72500 18500
" />
<path d="M69500 18000
L69500 18500
" />
</g>
<g style="fill:#000000; fill-opacity:0.0; 
stroke:#000000; stroke-width:0; stroke-opacity:1; 
stroke-linecap:round; stroke-linejoin:round;">
</g>
<g style="fill:#000000; fill-opacity:1.0; 
stroke:#000000; stroke-width:100; stroke-opacity:1; 
stroke-linecap:round; stroke-linejoin:round;">
<circle cx="69500" cy="18500" r="200" /> 
</g>
<g style="fill:#000000; fill-opacity:1.0; 
stroke:#000000; stroke-width:60; stroke-opacity:1; 
stroke-linecap:round; stroke-linejoin:round;">
</g>
<g style="fill:#000000; fill-opacity:0.0; 
stroke:#000000; stroke-width:60; stroke-opacity:1; 
stroke-linecap:round; stroke-linejoin:round;">
<path d="M69500 18500
L70500 18500
" />
<path d="M67500 18500
L69500 18500
" />
<path d="M63500 18500
L62000 18500
" />
<path d="M62000 19000
L62000 18500
" />
<path d="M67500 22500
L69000 22500
" />
<path d="M70500 22500
L70500 22000
" />
</g>
<g style="fill:#000000; fill-opacity:0.0; 
stroke:#000000; stroke-width:0; stroke-opacity:1; 
stroke-linecap:round; stroke-linejoin:round;">
</g>
<g style="fill:#000000; fill-opacity:1.0; 
stroke:#000000; stroke-width:100; stroke-opacity:1; 
stroke-linecap:round; stroke-linejoin:round;">
<circle cx="67500" cy="22500" r="200" /> 
</g>
<g style="fill:#000000; fill-opacity:1.0; 
stroke:#000000; stroke-width:60; stroke-opacity:1; 
stroke-linecap:round; stroke-linejoin:round;">
</g>
<g style="fill:#000000; fill-opacity:0.0; 
stroke:#000000; stroke-width:60; stroke-opacity:1; 
stroke-linecap:round; stroke-linejoin:round;">
<path d="M75000 19500
L75000 22500
" />
<path d="M75000 22500
L70500 22500
" />
<path d="M75000 19500
L77500 19500
" />
</g>
<g style="fill:#000000; fill-opacity:0.0; 
stroke:#000000; stroke-width:0; stroke-opacity:1; 
stroke-linecap:round; stroke-linejoin:round;">
</g>
<g style="fill:#000000; fill-opacity:1.0; 
stroke:#000000; stroke-width:100; stroke-opacity:1; 
stroke-linecap:round; stroke-linejoin:round;">
<circle cx="70500" cy="22500" r="200" /> 
</g>
<g style="fill:#000000; fill-opacity:1.0; 
stroke:#000000; stroke-width:0; stroke-opacity:1; 
stroke-linecap:round; stroke-linejoin:round;">
</g>
<g style="fill:#000000; fill-opacity:0.0; 
stroke:#000000; stroke-width:60; stroke-opacity:1; 
stroke-linecap:round; stroke-linejoin:round;">
<polyline fill="none;"
points="69200,14000
69500,13500
" /> 
<polyline fill="none;"
points="69500,14500
69500,13500
" /> 
<polyline fill="none;"
points="69500,13500
69800,14000
" /> 
<path d="M69000 12820
L69380 12820
" />
<path d="M69190 13010
L69190 12630
" />
<path d="M69860 12510
L69620 12510
L69600 12750
L69620 12730
L69670 12700
L69790 12700
L69840 12730
L69860 12750
L69880 12800
L69880 12920
L69860 12960
L69840 12990
L69790 13010
L69670 13010
L69620 12990
L69600 12960
" />
<path d="M70030 12510
L70190 13010
L70360 12510
" />
<path d="M69500 14500
L69500 15000
" />
</g>
<g style="fill:#000000; fill-opacity:0.0; 
stroke:#000000; stroke-width:0; stroke-opacity:1; 
stroke-linecap:round; stroke-linejoin:round;">
</g>
<g style="fill:#000000; fill-opacity:0.0; 
stroke:#000000; stroke-width:60; stroke-opacity:1; 
stroke-linecap:round; stroke-linejoin:round;">
<polyline fill="none;"
points="69000,23000
69000,23500
69500,23500
69000,24000
68500,23500
69000,23500
" /> 
<path d="M68660 24500
L68620 24470
L68550 24470
L68470 24500
L68430 24540
L68400 24590
L68380 24690
L68380 24760
L68400 24850
L68430 24900
L68470 24950
L68550 24970
L68590 24970
L68660 24950
L68690 24920
L68690 24760
L68590 24760
" />
<path d="M68900 24970
L68900 24470
L69190 24970
L69190 24470
" />
<path d="M69430 24970
L69430 24470
L69550 24470
L69620 24500
L69660 24540
L69690 24590
L69710 24690
L69710 24760
L69690 24850
L69660 24900
L69620 24950
L69550 24970
L69430 24970
" />
<path d="M69000 22500
L69000 23000
" />
</g>
<g style="fill:#000000; fill-opacity:0.0; 
stroke:#000000; stroke-width:0; stroke-opacity:1; 
stroke-linecap:round; stroke-linejoin:round;">
</g>
<g style="fill:#000000; fill-opacity:1.0; 
stroke:#000000; stroke-width:100; stroke-opacity:1; 
stroke-linecap:round; stroke-linejoin:round;">
<circle cx="69000" cy="22500" r="200" /> 
</g>
<g style="fill:#000000; fill-opacity:1.0; 
stroke:#000000; stroke-width:60; stroke-opacity:1; 
stroke-linecap:round; stroke-linejoin:round;">
</g>
<g style="fill:#000000; fill-opacity:0.0; 
stroke:#000000; stroke-width:60; stroke-opacity:1; 
stroke-linecap:round; stroke-linejoin:round;">
<path d="M69000 22500
L70500 22500
" />
</g>
<g style="fill:#000000; fill-opacity:0.0; 
stroke:#000000; stroke-width:0; stroke-opacity:1; 
stroke-linecap:round; stroke-linejoin:round;">
</g>
<g style="fill:#000000; fill-opacity:0.0; 
stroke:#000000; stroke-width:100; stroke-opacity:1; 
stroke-linecap:round; stroke-linejoin:round;">
<rect x="79000" y="26000" width="1000" height="2000" rx="0" />
</g>
<g style="fill:#000000; fill-opacity:0.0; 
stroke:#000000; stroke-width:60; stroke-opacity:1; 
stroke-linecap:round; stroke-linejoin:round;">
<circle cx="79500" cy="27500" r="250" /> 
<circle cx="79500" cy="26500" r="250" /> 
<polyline fill="none;"
points="79290,27370
79630,27700
" /> 
<polyline fill="none;"
points="79290,26370
79630,26700
" /> 
<polyline fill="none;"
points="79360,27300
79700,27630
" /> 
<polyline fill="none;"
points="79360,26300
79700,26630
" /> 
<path d="M79000 26500
L77500 26500
" />
<path d="M78390 26370
L78100 26370
" />
<path d="M78250 26370
L78250 25870
L78200 25940
L78150 25990
L78100 26010
" />
<path d="M79000 27500
L77500 27500
" />
<path d="M78100 26920
L78130 26900
L78170 26870
L78290 26870
L78340 26900
L78360 26920
L78390 26970
L78390 27010
L78360 27090
L78080 27370
L78390 27370
" />
<path d="M80580 26320
L80580 26680
L80550 26750
L80510 26800
L80440 26820
L80390 26820
" />
<path d="M80770 26320
L81080 26320
L80910 26510
L80980 26510
L81030 26540
L81050 26560
L81080 26610
L81080 26730
L81050 26770
L81030 26800
L80980 26820
L80840 26820
L80790 26800
L80770 26770
" />
<path d="M80360 27230
L80640 27230
" />
<path d="M80500 27730
L80500 27230
" />
<path d="M80810 27730
L80810 27230
" />
<path d="M81020 27730
L81020 27470
L81000 27420
L80950 27400
L80880 27400
L80830 27420
L80810 27450
" />
</g>
<g style="fill:#000000; fill-opacity:0.0; 
stroke:#000000; stroke-width:0; stroke-opacity:1; 
stroke-linecap:round; stroke-linejoin:round;">
</g>
<g style="fill:#000000; fill-opacity:0.0; 
stroke:#000000; stroke-width:60; stroke-opacity:1; 
stroke-linecap:round; stroke-linejoin:round;">
<polyline fill="none;"
points="76200,25500
76500,25000
" /> 
<polyline fill="none;"
points="76500,26000
76500,25000
" /> 
<polyline fill="none;"
points="76500,25000
76800,25500
" /> 
<path d="M76000 24320
L76380 24320
" />
<path d="M76190 24510
L76190 24130
" />
<path d="M76860 24010
L76620 24010
L76600 24250
L76620 24230
L76670 24200
L76790 24200
L76840 24230
L76860 24250
L76880 24300
L76880 24420
L76860 24460
L76840 24490
L76790 24510
L76670 24510
L76620 24490
L76600 24460
" />
<path d="M77030 24010
L77190 24510
L77360 24010
" />
<path d="M76500 26000
L76500 26500
" />
<path d="M76500 26500
L77500 26500
" />
</g>
<g style="fill:#000000; fill-opacity:0.0; 
stroke:#000000; stroke-width:0; stroke-opacity:1; 
stroke-linecap:round; stroke-linejoin:round;">
</g>
<g style="fill:#000000; fill-opacity:0.0; 
stroke:#000000; stroke-width:100; stroke-opacity:1; 
stroke-linecap:round; stroke-linejoin:round;">
<rect x="76100" y="29500" width="800" height="2000" rx="0" />
</g>
<g style="fill:#000000; fill-opacity:0.0; 
stroke:#000000; stroke-width:60; stroke-opacity:1; 
stroke-linecap:round; stroke-linejoin:round;">
<path d="M76500 29500
L76500 29000
" />
<path d="M76500 31500
L76500 32000
" />
<path d="M77630 30280
L77470 30040
" />
<path d="M77350 30280
L77350 29780
L77540 29780
L77580 29810
L77610 29830
L77630 29880
L77630 29950
L77610 30000
L77580 30020
L77540 30040
L77350 30040
" />
<path d="M78060 29950
L78060 30280
" />
<path d="M77940 29760
L77820 30110
L78130 30110
" />
<path d="M77630 31190
L77460 30950
" />
<path d="M77340 31190
L77340 30690
L77530 30690
L77580 30720
L77610 30740
L77630 30790
L77630 30860
L77610 30910
L77580 30930
L77530 30950
L77340 30950
" />
<path d="M77500 27500
L76500 27500
" />
<path d="M76500 27500
L76500 29000
" />
</g>
<g style="fill:#000000; fill-opacity:0.0; 
stroke:#000000; stroke-width:0; stroke-opacity:1; 
stroke-linecap:round; stroke-linejoin:round;">
</g>
<g style="fill:#000000; fill-opacity:0.0; 
stroke:#000000; stroke-width:60; stroke-opacity:1; 
stroke-linecap:round; stroke-linejoin:round;">
<polyline fill="none;"
points="74500,33000
74500,33500
75000,33500
74500,34000
74000,33500
74500,33500
" /> 
<path d="M74160 34500
L74120 34470
L74050 34470
L73970 34500
L73930 34540
L73900 34590
L73880 34690
L73880 34760
L73900 34850
L73930 34900
L73970 34950
L74050 34970
L74090 34970
L74160 34950
L74190 34920
L74190 34760
L74090 34760
" />
<path d="M74400 34970
L74400 34470
L74690 34970
L74690 34470
" />
<path d="M74930 34970
L74930 34470
L75050 34470
L75120 34500
L75160 34540
L75190 34590
L75210 34690
L75210 34760
L75190 34850
L75160 34900
L75120 34950
L75050 34970
L74930 34970
" />
</g>
<g style="fill:#000000; fill-opacity:0.0; 
stroke:#000000; stroke-width:0; stroke-opacity:1; 
stroke-linecap:round; stroke-linejoin:round;">
</g>
<g style="fill:#000000; fill-opacity:0.0; 
stroke:#000000; stroke-width:200; stroke-opacity:1; 
stroke-linecap:round; stroke-linejoin:round;">
<polyline fill="none;"
points="71700,30800
73300,30800
" /> 
<polyline fill="none;"
points="71700,30200
73300,30200
" /> 
</g>
<g style="fill:#000000; fill-opacity:0.0; 
stroke:#000000; stroke-width:60; stroke-opacity:1; 
stroke-linecap:round; stroke-linejoin:round;">
<path d="M72500 30100
L72500 29000
" />
<path d="M72500 30900
L72500 32000
" />
<path d="M74080 30230
L74060 30260
L73990 30280
L73940 30280
L73870 30260
L73820 30210
L73800 30160
L73770 30070
L73770 30000
L73800 29900
L73820 29850
L73870 29810
L73940 29780
L73990 29780
L74060 29810
L74080 29830
" />
<path d="M74510 29950
L74510 30280
" />
<path d="M74390 29760
L74270 30110
L74580 30110
" />
<path d="M74050 31190
L73770 31190
" />
<path d="M73910 31190
L73910 30690
L73860 30760
L73810 30810
L73770 30830
" />
<path d="M74360 30690
L74410 30690
L74460 30720
L74480 30740
L74500 30790
L74530 30880
L74530 31000
L74500 31100
L74480 31140
L74460 31170
L74410 31190
L74360 31190
L74310 31170
L74290 31140
L74270 31100
L74240 31000
L74240 30880
L74270 30790
L74290 30740
L74310 30720
L74360 30690
" />
<path d="M74840 30690
L74880 30690
L74930 30720
L74960 30740
L74980 30790
L75000 30880
L75000 31000
L74980 31100
L74960 31140
L74930 31170
L74880 31190
L74840 31190
L74790 31170
L74770 31140
L74740 31100
L74720 31000
L74720 30880
L74740 30790
L74770 30740
L74790 30720
L74840 30690
" />
<path d="M75220 30860
L75220 31190
" />
<path d="M75220 30910
L75240 30880
L75290 30860
L75360 30860
L75410 30880
L75430 30930
L75430 31190
" />
<path d="M75840 30930
L75670 30930
" />
<path d="M75670 31190
L75670 30690
L75910 30690
" />
<path d="M76500 27500
L72500 27500
" />
</g>
<g style="fill:#000000; fill-opacity:0.0; 
stroke:#000000; stroke-width:0; stroke-opacity:1; 
stroke-linecap:round; stroke-linejoin:round;">
</g>
<g style="fill:#000000; fill-opacity:1.0; 
stroke:#000000; stroke-width:100; stroke-opacity:1; 
stroke-linecap:round; stroke-linejoin:round;">
<circle cx="76500" cy="27500" r="200" /> 
</g>
<g style="fill:#000000; fill-opacity:1.0; 
stroke:#000000; stroke-width:60; stroke-opacity:1; 
stroke-linecap:round; stroke-linejoin:round;">
</g>
<g style="fill:#000000; fill-opacity:0.0; 
stroke:#000000; stroke-width:60; stroke-opacity:1; 
stroke-linecap:round; stroke-linejoin:round;">
<path d="M72500 29000
L72500 27500
" />
<path d="M72500 32000
L72500 32500
" />
<path d="M72500 32500
L74500 32500
" />
<path d="M76500 32500
L76500 32000
" />
</g>
<g style="fill:#000000; fill-opacity:0.0; 
stroke:#000000; stroke-width:0; stroke-opacity:1; 
stroke-linecap:round; stroke-linejoin:round;">
</g>
<g style="fill:#000000; fill-opacity:1.0; 
stroke:#000000; stroke-width:100; stroke-opacity:1; 
stroke-linecap:round; stroke-linejoin:round;">
<circle cx="74500" cy="32500" r="200" /> 
</g>
<g style="fill:#000000; fill-opacity:1.0; 
stroke:#000000; stroke-width:60; stroke-opacity:1; 
stroke-linecap:round; stroke-linejoin:round;">
</g>
<g style="fill:#000000; fill-opacity:0.0; 
stroke:#000000; stroke-width:60; stroke-opacity:1; 
stroke-linecap:round; stroke-linejoin:round;">
<path d="M74500 32500
L76500 32500
" />
<path d="M74500 33000
L74500 32500
" />
<path d="M57500 27500
L72500 27500
" />
</g>
<g style="fill:#000000; fill-opacity:0.0; 
stroke:#000000; stroke-width:0; stroke-opacity:1; 
stroke-linecap:round; stroke-linejoin:round;">
</g>
<g style="fill:#000000; fill-opacity:1.0; 
stroke:#000000; stroke-width:100; stroke-opacity:1; 
stroke-linecap:round; stroke-linejoin:round;">
<circle cx="72500" cy="27500" r="200" /> 
</g>
<g style="fill:#000000; fill-opacity:1.0; 
stroke:#000000; stroke-width:60; stroke-opacity:1; 
stroke-linecap:round; stroke-linejoin:round;">
</g>
<g style="fill:#000000; fill-opacity:0.0; 
stroke:#000000; stroke-width:60; stroke-opacity:1; 
stroke-linecap:round; stroke-linejoin:round;">
<path d="M57500 26500
L59000 26500
" />
<path d="M59000 18500
L62000 18500
" />
</g>
<g style="fill:#000000; fill-opacity:0.0; 
stroke:#000000; stroke-width:0; stroke-opacity:1; 
stroke-linecap:round; stroke-linejoin:round;">
</g>
<g style="fill:#000000; fill-opacity:1.0; 
stroke:#000000; stroke-width:100; stroke-opacity:1; 
stroke-linecap:round; stroke-linejoin:round;">
<circle cx="62000" cy="18500" r="200" /> 
</g>
<g style="fill:#000000; fill-opacity:1.0; 
stroke:#000000; stroke-width:0; stroke-opacity:1; 
stroke-linecap:round; stroke-linejoin:round;">
</g>
<g style="fill:#000000; fill-opacity:0.0; 
stroke:#000000; stroke-width:100; stroke-opacity:1; 
stroke-linecap:round; stroke-linejoin:round;">
<circle cx="38000" cy="39500" r="1110" /> 
</g>
<g style="fill:#000000; fill-opacity:0.0; 
stroke:#000000; stroke-width:60; stroke-opacity:1; 
stroke-linecap:round; stroke-linejoin:round;">
<polyline fill="none;"
points="37750,39250
38500,38500
" /> 
<polyline fill="none;"
points="37750,39750
38500,40500
38500,40500
" /> 
</g>
<g style="fill:#000000; fill-opacity:0.0; 
stroke:#000000; stroke-width:200; stroke-opacity:1; 
stroke-linecap:round; stroke-linejoin:round;">
<polyline fill="none;"
points="37750,38750
37750,40250
37750,40250
" /> 
</g>
<g style="fill:#000000; fill-opacity:1.0; 
stroke:#000000; stroke-width:60; stroke-opacity:1; 
stroke-linecap:round; stroke-linejoin:round;">
<polyline style="fill-rule:evenodd;"
points="38400,40200
38200,40400
38000,40000
38400,40200
38400,40200
" /> 
</g>
<g style="fill:#000000; fill-opacity:0.0; 
stroke:#000000; stroke-width:60; stroke-opacity:1; 
stroke-linecap:round; stroke-linejoin:round;">
<path d="M38500 40500
L38500 41500
" />
<path d="M39070 40850
L39070 41140
" />
<path d="M39070 41000
L38570 41000
L38640 41040
L38690 41090
L38710 41140
" />
<path d="M38500 38500
L38500 37500
" />
<path d="M38620 38140
L38600 38110
L38570 38070
L38570 37950
L38600 37900
L38620 37880
L38670 37850
L38710 37850
L38790 37880
L39070 38160
L39070 37850
" />
<path d="M37750 39500
L35500 39500
" />
<path d="M36450 39570
L36760 39570
L36590 39760
L36660 39760
L36710 39790
L36730 39810
L36760 39860
L36760 39980
L36730 40020
L36710 40050
L36660 40070
L36520 40070
L36470 40050
L36450 40020
" />
<path d="M39890 39330
L39840 39310
L39790 39260
L39720 39190
L39670 39160
L39630 39160
" />
<path d="M39650 39280
L39600 39260
L39550 39210
L39530 39110
L39530 38950
L39550 38850
L39600 38810
L39650 38780
L39740 38780
L39790 38810
L39840 38850
L39860 38950
L39860 39110
L39840 39210
L39790 39260
L39740 39280
L39650 39280
" />
<path d="M40340 39280
L40050 39280
" />
<path d="M40200 39280
L40200 38780
L40150 38850
L40100 38900
L40050 38920
" />
<path d="M39720 39930
L39790 39950
L39810 39980
L39840 40020
L39840 40100
L39810 40140
L39790 40170
L39740 40190
L39550 40190
L39550 39690
L39720 39690
L39770 39720
L39790 39740
L39810 39790
L39810 39830
L39790 39880
L39770 39910
L39720 39930
L39550 39930
" />
<path d="M40310 40190
L40030 40190
" />
<path d="M40170 40190
L40170 39690
L40120 39760
L40080 39810
L40030 39830
" />
<path d="M40480 39690
L40790 39690
L40620 39880
L40690 39880
L40740 39910
L40770 39930
L40790 39980
L40790 40100
L40770 40140
L40740 40170
L40690 40190
L40550 40190
L40500 40170
L40480 40140
" />
<path d="M41270 40190
L40980 40190
" />
<path d="M41120 40190
L41120 39690
L41080 39760
L41030 39810
L40980 39830
" />
<path d="M41740 40190
L41460 40190
" />
<path d="M41600 40190
L41600 39690
L41550 39760
L41500 39810
L41460 39830
" />
</g>
<g style="fill:#000000; fill-opacity:0.0; 
stroke:#000000; stroke-width:0; stroke-opacity:1; 
stroke-linecap:round; stroke-linejoin:round;">
</g>
<g style="fill:#000000; fill-opacity:0.0; 
stroke:#000000; stroke-width:100; stroke-opacity:1; 
stroke-linecap:round; stroke-linejoin:round;">
<rect x="31000" y="39100" width="2000" height="800" rx="0" />
</g>
<g style="fill:#000000; fill-opacity:0.0; 
stroke:#000000; stroke-width:60; stroke-opacity:1; 
stroke-linecap:round; stroke-linejoin:round;">
<path d="M33000 39500
L33500 39500
" />
<path d="M31000 39500
L30500 39500
" />
<path d="M31910 37620
L31750 37380
" />
<path d="M31630 37620
L31630 37120
L31820 37120
L31860 37150
L31890 37170
L31910 37220
L31910 37290
L31890 37340
L31860 37360
L31820 37380
L31630 37380
" />
<path d="M32340 37120
L32250 37120
L32200 37150
L32170 37170
L32130 37240
L32100 37340
L32100 37530
L32130 37570
L32150 37600
L32200 37620
L32290 37620
L32340 37600
L32360 37570
L32390 37530
L32390 37410
L32360 37360
L32340 37340
L32290 37310
L32200 37310
L32150 37340
L32130 37360
L32100 37410
" />
<path d="M31890 38530
L31600 38530
" />
<path d="M31750 38530
L31750 38030
L31700 38100
L31650 38150
L31600 38170
" />
<path d="M32100 38530
L32100 38030
" />
<path d="M32390 38530
L32170 38250
" />
<path d="M32390 38030
L32100 38320
" />
</g>
<g style="fill:#000000; fill-opacity:0.0; 
stroke:#000000; stroke-width:0; stroke-opacity:1; 
stroke-linecap:round; stroke-linejoin:round;">
</g>
<g style="fill:#000000; fill-opacity:0.0; 
stroke:#000000; stroke-width:80; stroke-opacity:1; 
stroke-linecap:round; stroke-linejoin:round;">
<polyline fill="none;"
points="39000,44000
38000,44000
" /> 
</g>
<g style="fill:#000000; fill-opacity:0.0; 
stroke:#000000; stroke-width:60; stroke-opacity:1; 
stroke-linecap:round; stroke-linejoin:round;">
<polyline fill="none;"
points="38500,45000
38500,44000
" /> 
</g>
<g style="fill:#000000; fill-opacity:0.0; 
stroke:#000000; stroke-width:80; stroke-opacity:1; 
stroke-linecap:round; stroke-linejoin:round;">
<polyline fill="none;"
points="39000,45000
38000,45000
38500,44000
39000,45000
" /> 
</g>
<g style="fill:#000000; fill-opacity:0.0; 
stroke:#000000; stroke-width:60; stroke-opacity:1; 
stroke-linecap:round; stroke-linejoin:round;">
<path d="M38500 44000
L38500 43000
" />
<path d="M38500 45000
L38500 46000
" />
<path d="M37150 45240
L37150 44740
L37270 44740
L37340 44770
L37380 44810
L37410 44860
L37430 44960
L37430 45030
L37410 45120
L37380 45170
L37340 45220
L37270 45240
L37150 45240
" />
<path d="M37600 44740
L37910 44740
L37740 44930
L37810 44930
L37860 44960
L37880 44980
L37910 45030
L37910 45150
L37880 45190
L37860 45220
L37810 45240
L37670 45240
L37620 45220
L37600 45190
" />
<path d="M35610 46220
L35690 46240
L35800 46240
L35850 46220
L35880 46190
L35900 46150
L35900 46100
L35880 46050
L35850 46030
L35800 46000
L35710 45980
L35660 45960
L35640 45930
L35610 45880
L35610 45840
L35640 45790
L35660 45770
L35710 45740
L35830 45740
L35900 45770
" />
<path d="M36110 46240
L36110 45740
L36280 46100
L36450 45740
L36450 46240
" />
<path d="M36900 45910
L36900 46240
" />
<path d="M36780 45720
L36660 46070
L36970 46070
" />
<path d="M37260 45740
L37300 45740
L37350 45770
L37380 45790
L37400 45840
L37420 45930
L37420 46050
L37400 46150
L37380 46190
L37350 46220
L37300 46240
L37260 46240
L37210 46220
L37190 46190
L37160 46150
L37140 46050
L37140 45930
L37160 45840
L37190 45790
L37210 45770
L37260 45740
" />
<path d="M37730 45740
L37780 45740
L37830 45770
L37850 45790
L37880 45840
L37900 45930
L37900 46050
L37880 46150
L37850 46190
L37830 46220
L37780 46240
L37730 46240
L37690 46220
L37660 46190
L37640 46150
L37610 46050
L37610 45930
L37640 45840
L37660 45790
L37690 45770
L37730 45740
" />
<path d="M38070 45740
L38400 45740
L38190 46240
" />
</g>
<g style="fill:#000000; fill-opacity:0.0; 
stroke:#000000; stroke-width:0; stroke-opacity:1; 
stroke-linecap:round; stroke-linejoin:round;">
</g>
<g style="fill:#000000; fill-opacity:0.0; 
stroke:#000000; stroke-width:100; stroke-opacity:1; 
stroke-linecap:round; stroke-linejoin:round;">
<rect x="42000" y="43500" width="1000" height="2000" rx="0" />
</g>
<g style="fill:#000000; fill-opacity:0.0; 
stroke:#000000; stroke-width:60; stroke-opacity:1; 
stroke-linecap:round; stroke-linejoin:round;">
<circle cx="42500" cy="45000" r="250" /> 
<circle cx="42500" cy="44000" r="250" /> 
<polyline fill="none;"
points="42290,44870
42630,45200
" /> 
<polyline fill="none;"
points="42290,43870
42630,44200
" /> 
<polyline fill="none;"
points="42360,44800
42700,45130
" /> 
<polyline fill="none;"
points="42360,43800
42700,44130
" /> 
<path d="M42000 44000
L40500 44000
" />
<path d="M41390 43870
L41100 43870
" />
<path d="M41250 43870
L41250 43370
L41200 43440
L41150 43490
L41100 43510
" />
<path d="M42000 45000
L40500 45000
" />
<path d="M41100 44420
L41130 44400
L41170 44370
L41290 44370
L41340 44400
L41360 44420
L41390 44470
L41390 44510
L41360 44590
L41080 44870
L41390 44870
" />
<path d="M43580 43820
L43580 44180
L43550 44250
L43510 44300
L43440 44320
L43390 44320
" />
<path d="M44030 43820
L43940 43820
L43890 43850
L43860 43870
L43820 43940
L43790 44040
L43790 44230
L43820 44270
L43840 44300
L43890 44320
L43980 44320
L44030 44300
L44050 44270
L44080 44230
L44080 44110
L44050 44060
L44030 44040
L43980 44010
L43890 44010
L43840 44040
L43820 44060
L43790 44110
" />
<path d="M43590 44970
L43430 44970
" />
<path d="M43430 45230
L43430 44730
L43670 44730
" />
<path d="M44070 45230
L44070 44970
L44050 44920
L44000 44900
L43900 44900
L43860 44920
" />
<path d="M44070 45210
L44020 45230
L43900 45230
L43860 45210
L43830 45160
L43830 45110
L43860 45060
L43900 45040
L44020 45040
L44070 45020
" />
<path d="M44310 44900
L44310 45230
" />
<path d="M44310 44950
L44330 44920
L44380 44900
L44450 44900
L44500 44920
L44520 44970
L44520 45230
" />
<path d="M38500 41500
L38500 42500
" />
<path d="M40000 42500
L38500 42500
" />
</g>
<g style="fill:#000000; fill-opacity:0.0; 
stroke:#000000; stroke-width:0; stroke-opacity:1; 
stroke-linecap:round; stroke-linejoin:round;">
</g>
<g style="fill:#000000; fill-opacity:1.0; 
stroke:#000000; stroke-width:100; stroke-opacity:1; 
stroke-linecap:round; stroke-linejoin:round;">
<circle cx="38500" cy="42500" r="200" /> 
</g>
<g style="fill:#000000; fill-opacity:1.0; 
stroke:#000000; stroke-width:60; stroke-opacity:1; 
stroke-linecap:round; stroke-linejoin:round;">
</g>
<g style="fill:#000000; fill-opacity:0.0; 
stroke:#000000; stroke-width:60; stroke-opacity:1; 
stroke-linecap:round; stroke-linejoin:round;">
<path d="M38500 42500
L38500 43000
" />
<path d="M40000 47000
L38500 47000
" />
<path d="M38500 47000
L38500 46000
" />
</g>
<g style="fill:#000000; fill-opacity:0.0; 
stroke:#000000; stroke-width:0; stroke-opacity:1; 
stroke-linecap:round; stroke-linejoin:round;">
</g>
<g style="fill:#000000; fill-opacity:0.0; 
stroke:#000000; stroke-width:60; stroke-opacity:1; 
stroke-linecap:round; stroke-linejoin:round;">
<polyline fill="none;"
points="38500,47500
38500,48000
39000,48000
38500,48500
38000,48000
38500,48000
" /> 
<path d="M38160 49000
L38120 48970
L38050 48970
L37970 49000
L37930 49040
L37900 49090
L37880 49190
L37880 49260
L37900 49350
L37930 49400
L37970 49450
L38050 49470
L38090 49470
L38160 49450
L38190 49420
L38190 49260
L38090 49260
" />
<path d="M38400 49470
L38400 48970
L38690 49470
L38690 48970
" />
<path d="M38930 49470
L38930 48970
L39050 48970
L39120 49000
L39160 49040
L39190 49090
L39210 49190
L39210 49260
L39190 49350
L39160 49400
L39120 49450
L39050 49470
L38930 49470
" />
<path d="M38500 47500
L38500 47000
" />
</g>
<g style="fill:#000000; fill-opacity:0.0; 
stroke:#000000; stroke-width:0; stroke-opacity:1; 
stroke-linecap:round; stroke-linejoin:round;">
</g>
<g style="fill:#000000; fill-opacity:1.0; 
stroke:#000000; stroke-width:100; stroke-opacity:1; 
stroke-linecap:round; stroke-linejoin:round;">
<circle cx="38500" cy="47000" r="200" /> 
</g>
<g style="fill:#000000; fill-opacity:1.0; 
stroke:#000000; stroke-width:0; stroke-opacity:1; 
stroke-linecap:round; stroke-linejoin:round;">
</g>
<g style="fill:#000000; fill-opacity:0.0; 
stroke:#000000; stroke-width:100; stroke-opacity:1; 
stroke-linecap:round; stroke-linejoin:round;">
<rect x="34100" y="35000" width="800" height="2000" rx="0" />
</g>
<g style="fill:#000000; fill-opacity:0.0; 
stroke:#000000; stroke-width:60; stroke-opacity:1; 
stroke-linecap:round; stroke-linejoin:round;">
<path d="M34500 37000
L34500 37500
" />
<path d="M34500 35000
L34500 34500
" />
<path d="M33200 35730
L33040 35490
" />
<path d="M32920 35730
L32920 35230
L33110 35230
L33150 35260
L33180 35280
L33200 35330
L33200 35400
L33180 35450
L33150 35470
L33110 35490
L32920 35490
" />
<path d="M33650 35230
L33420 35230
L33390 35470
L33420 35450
L33460 35420
L33580 35420
L33630 35450
L33650 35470
L33680 35520
L33680 35640
L33650 35680
L33630 35710
L33580 35730
L33460 35730
L33420 35710
L33390 35680
" />
<path d="M32650 36310
L32650 36640
" />
<path d="M32530 36120
L32410 36470
L32720 36470
" />
<path d="M32870 36140
L33200 36140
L32990 36640
" />
<path d="M33390 36640
L33390 36140
" />
<path d="M33680 36640
L33460 36360
" />
<path d="M33680 36140
L33390 36430
" />
</g>
<g style="fill:#000000; fill-opacity:0.0; 
stroke:#000000; stroke-width:0; stroke-opacity:1; 
stroke-linecap:round; stroke-linejoin:round;">
</g>
<g style="fill:#000000; fill-opacity:0.0; 
stroke:#000000; stroke-width:60; stroke-opacity:1; 
stroke-linecap:round; stroke-linejoin:round;">
<polyline fill="none;"
points="36200,32500
36500,32000
" /> 
<polyline fill="none;"
points="36500,33000
36500,32000
" /> 
<polyline fill="none;"
points="36500,32000
36800,32500
" /> 
<path d="M35760 31320
L36150 31320
" />
<path d="M35950 31510
L35950 31130
" />
<path d="M36650 31510
L36360 31510
" />
<path d="M36500 31510
L36500 31010
L36450 31080
L36410 31130
L36360 31150
" />
<path d="M36840 31060
L36860 31040
L36910 31010
L37030 31010
L37070 31040
L37100 31060
L37120 31110
L37120 31150
L37100 31230
L36810 31510
L37120 31510
" />
<path d="M37260 31010
L37430 31510
L37600 31010
" />
<path d="M36500 33000
L36500 34000
" />
<path d="M36500 34000
L38500 34000
" />
<path d="M38500 34000
L38500 37500
" />
<path d="M34500 34500
L34500 34000
" />
<path d="M34500 34000
L36500 34000
" />
</g>
<g style="fill:#000000; fill-opacity:0.0; 
stroke:#000000; stroke-width:0; stroke-opacity:1; 
stroke-linecap:round; stroke-linejoin:round;">
</g>
<g style="fill:#000000; fill-opacity:1.0; 
stroke:#000000; stroke-width:100; stroke-opacity:1; 
stroke-linecap:round; stroke-linejoin:round;">
<circle cx="36500" cy="34000" r="200" /> 
</g>
<g style="fill:#000000; fill-opacity:1.0; 
stroke:#000000; stroke-width:60; stroke-opacity:1; 
stroke-linecap:round; stroke-linejoin:round;">
</g>
<g style="fill:#000000; fill-opacity:0.0; 
stroke:#000000; stroke-width:60; stroke-opacity:1; 
stroke-linecap:round; stroke-linejoin:round;">
<path d="M34500 37500
L34500 39500
" />
<path d="M34500 39500
L35500 39500
" />
<path d="M33500 39500
L34500 39500
" />
</g>
<g style="fill:#000000; fill-opacity:0.0; 
stroke:#000000; stroke-width:0; stroke-opacity:1; 
stroke-linecap:round; stroke-linejoin:round;">
</g>
<g style="fill:#000000; fill-opacity:1.0; 
stroke:#000000; stroke-width:100; stroke-opacity:1; 
stroke-linecap:round; stroke-linejoin:round;">
<circle cx="34500" cy="39500" r="200" /> 
</g>
<g style="fill:#000000; fill-opacity:1.0; 
stroke:#000000; stroke-width:60; stroke-opacity:1; 
stroke-linecap:round; stroke-linejoin:round;">
</g>
<g style="fill:#000000; fill-opacity:0.0; 
stroke:#000000; stroke-width:60; stroke-opacity:1; 
stroke-linecap:round; stroke-linejoin:round;">
<path d="M40000 47000
L40000 45000
" />
<path d="M40000 45000
L40500 45000
" />
<path d="M40500 44000
L40000 44000
" />
<path d="M40000 42500
L40000 44000
" />
<path d="M58620 33460
L58450 33460
" />
<path d="M58450 33720
L58450 33220
L58690 33220
" />
<path d="M58860 33580
L59100 33580
" />
<path d="M58810 33720
L58980 33220
L59140 33720
" />
<path d="M59310 33720
L59310 33220
L59600 33720
L59600 33220
" />
</g>
<g style="fill:#000000; fill-opacity:0.0; 
stroke:#000000; stroke-width:100; stroke-opacity:1; 
stroke-linecap:round; stroke-linejoin:round;">
<polyline fill="none;"
points="58000,33500
58250,33940
59860,33940
59860,33500
59860,33060
58250,33060
58000,33500
" /> 
</g>
<g style="fill:#000000; fill-opacity:0.0; 
stroke:#000000; stroke-width:60; stroke-opacity:1; 
stroke-linecap:round; stroke-linejoin:round;">
<path d="M58000 33500
L57500 33500
" />
<path d="M28060 39460
L27890 39460
" />
<path d="M27890 39720
L27890 39220
L28130 39220
" />
<path d="M28300 39580
L28540 39580
" />
<path d="M28250 39720
L28420 39220
L28580 39720
" />
<path d="M28750 39720
L28750 39220
L29040 39720
L29040 39220
" />
</g>
<g style="fill:#000000; fill-opacity:0.0; 
stroke:#000000; stroke-width:100; stroke-opacity:1; 
stroke-linecap:round; stroke-linejoin:round;">
<polyline fill="none;"
points="29500,39500
29250,39060
27640,39060
27640,39500
27640,39940
29250,39940
29500,39500
" /> 
</g>
<g style="fill:#000000; fill-opacity:0.0; 
stroke:#000000; stroke-width:60; stroke-opacity:1; 
stroke-linecap:round; stroke-linejoin:round;">
<path d="M29500 39500
L30500 39500
" />
</g>
<g style="fill:#000000; fill-opacity:0.0; 
stroke:#000000; stroke-width:0; stroke-opacity:1; 
stroke-linecap:round; stroke-linejoin:round;">
</g>
<g style="fill:#000000; fill-opacity:0.0; 
stroke:#000000; stroke-width:100; stroke-opacity:1; 
stroke-linecap:round; stroke-linejoin:round;">
<rect x="64500" y="28000" width="1000" height="2000" rx="0" />
</g>
<g style="fill:#000000; fill-opacity:0.0; 
stroke:#000000; stroke-width:60; stroke-opacity:1; 
stroke-linecap:round; stroke-linejoin:round;">
<circle cx="65000" cy="29500" r="250" /> 
<circle cx="65000" cy="28500" r="250" /> 
<polyline fill="none;"
points="64790,29370
65130,29700
" /> 
<polyline fill="none;"
points="64790,28370
65130,28700
" /> 
<polyline fill="none;"
points="64860,29300
65200,29630
" /> 
<polyline fill="none;"
points="64860,28300
65200,28630
" /> 
<path d="M64500 28500
L63000 28500
" />
<path d="M63890 28370
L63600 28370
" />
<path d="M63750 28370
L63750 27870
L63700 27940
L63650 27990
L63600 28010
" />
<path d="M64500 29500
L63000 29500
" />
<path d="M63600 28920
L63630 28900
L63670 28870
L63790 28870
L63840 28900
L63860 28920
L63890 28970
L63890 29010
L63860 29090
L63580 29370
L63890 29370
" />
<path d="M66080 28320
L66080 28680
L66050 28750
L66010 28800
L65940 28820
L65890 28820
" />
<path d="M66530 28490
L66530 28820
" />
<path d="M66410 28300
L66290 28650
L66600 28650
" />
<path d="M65880 29230
L66000 29730
L66100 29370
L66190 29730
L66310 29230
" />
<path d="M57500 28500
L63000 28500
" />
<path d="M57500 29500
L63000 29500
" />
<path d="M57260 37260
L57740 37740
" />
<path d="M57740 37260
L57260 37740
" />
<path d="M59000 18500
L59000 26500
" />
</g> 
</svg>
