<?xml version="1.0" standalone="no"?>
 <!DOCTYPE svg PUBLIC "-//W3C//DTD SVG 1.1//EN" 
 "http://www.w3.org/Graphics/SVG/1.1/DTD/svg11.dtd"> 
<svg xmlns="http://www.w3.org/2000/svg" version="1.1" 
    width="29.7002cm" height="21.0007cm" viewBox="0 0 116930 82680 ">
<title>SVG Picture created as rectifier-B.Cu.svg date 2020/02/28 08:26:31 </title>
  <desc>Picture generated by PCBNEW </desc>
<g style="fill:#000000; fill-opacity:1;stroke:#000000; stroke-opacity:1;
stroke-linecap:round; stroke-linejoin:round; "
 transform="translate(0 0) scale(1 1)">
</g>
<g style="fill:#000000; fill-opacity:0.0; 
stroke:#000000; stroke-width:-0.000393701; stroke-opacity:1; 
stroke-linecap:round; stroke-linejoin:round;">
</g>
<g style="fill:#000000; fill-opacity:0.0; 
stroke:#000000; stroke-width:0; stroke-opacity:1; 
stroke-linecap:round; stroke-linejoin:round;">
</g>
<g style="fill:#000000; fill-opacity:1.0; 
stroke:#000000; stroke-width:0; stroke-opacity:1; 
stroke-linecap:round; stroke-linejoin:round;">
<polyline style="fill-rule:evenodd;"
points="65433,31496
64803,31496
64803,30866
65433,30866
65433,31496
" /> 
<circle cx="65118.1" cy="30196.9" r="314.961" /> 
</g>
<g style="fill:#000000; fill-opacity:1.0; 
stroke:#000000; stroke-width:19.685; stroke-opacity:1; 
stroke-linecap:round; stroke-linejoin:round;">
</g>
<g style="fill:#000000; fill-opacity:1.0; 
stroke:#000000; stroke-width:0; stroke-opacity:1; 
stroke-linecap:round; stroke-linejoin:round;">
<polyline style="fill-rule:evenodd;"
points="62836,28513
61773,28513
61773,27922
62836,27922
62836,28513
" /> 
<polyline style="fill-rule:evenodd;"
points="62836,30402
61773,30402
61773,29812
62836,29812
62836,30402
" /> 
<polyline style="fill-rule:evenodd;"
points="64332,30402
63269,30402
63269,29812
64332,29812
64332,30402
" /> 
<polyline style="fill-rule:evenodd;"
points="64332,28513
63269,28513
63269,27922
64332,27922
64332,28513
" /> 
<polyline style="fill-rule:evenodd;"
points="62836,31347
61773,31347
61773,30757
62836,30757
62836,31347
" /> 
<polyline style="fill-rule:evenodd;"
points="62836,33237
61773,33237
61773,32646
62836,32646
62836,33237
" /> 
<polyline style="fill-rule:evenodd;"
points="64332,33237
63269,33237
63269,32646
64332,32646
64332,33237
" /> 
<polyline style="fill-rule:evenodd;"
points="64332,31347
63269,31347
63269,30757
64332,30757
64332,31347
" /> 
<circle cx="68031.5" cy="29700" r="590.551" /> 
</g>
<g style="fill:#000000; fill-opacity:1.0; 
stroke:#000000; stroke-width:19.685; stroke-opacity:1; 
stroke-linecap:round; stroke-linejoin:round;">
</g>
<g style="fill:#000000; fill-opacity:1.0; 
stroke:#000000; stroke-width:0; stroke-opacity:1; 
stroke-linecap:round; stroke-linejoin:round;">
<polyline style="fill-rule:evenodd;"
points="68622,32290
67440,32290
67440,31109
68622,31109
68622,32290
" /> 
<polyline style="fill-rule:evenodd;"
points="60196,28984
61377,28984
61377,30165
60196,30165
60196,28984
" /> 
<circle cx="60787.4" cy="31574.8" r="590.551" /> 
</g>
<g style="fill:#000000; fill-opacity:1.0; 
stroke:#000000; stroke-width:19.685; stroke-opacity:1; 
stroke-linecap:round; stroke-linejoin:round;">
</g>
<g style="fill:#000000; fill-opacity:1.0; 
stroke:#000000; stroke-width:393.701; stroke-opacity:1; 
stroke-linecap:round; stroke-linejoin:round;">
</g>
<g style="fill:#000000; fill-opacity:0.0; 
stroke:#000000; stroke-width:393.701; stroke-opacity:1; 
stroke-linecap:round; stroke-linejoin:round;">
<path d="M63800 30363
L63800 31052
" />
<path d="M63800 29600
L63800 30363
" />
<path d="M63400 29200
L63800 29600
" />
<path d="M60787 29574
L61162 29200
" />
<path d="M61162 29200
L63400 29200
" />
<path d="M61782 31574
L62304 31052
" />
<path d="M60787 31574
L61782 31574
" />
<path d="M62304 31052
L62304 30107
" />
<path d="M65118 30196
L65118 28582
" />
<path d="M64753 28217
L63800 28217
" />
<path d="M65118 28582
L64753 28217
" />
<path d="M63800 28217
L62304 28217
" />
<path d="M66400 29700
L68031 29700
" />
<path d="M65900 30200
L66400 29700
" />
<path d="M65118 30196
L65121 30200
" />
<path d="M65121 30200
L65900 30200
" />
<path d="M63229 32942
L62304 32942
" />
<path d="M64725 32942
L63229 32942
" />
<path d="M65118 32550
L64725 32942
" />
<path d="M65118 31181
L65118 32550
" />
<path d="M65826 31181
L66345 31700
" />
<path d="M65118 31181
L65826 31181
" />
<path d="M66345 31700
L68031 31700
" />
</g>
<g style="fill:#FFFFFF; fill-opacity:0.0; 
stroke:#FFFFFF; stroke-width:393.701; stroke-opacity:1; 
stroke-linecap:round; stroke-linejoin:round;">
</g>
<g style="fill:#FFFFFF; fill-opacity:1.0; 
stroke:#FFFFFF; stroke-width:0; stroke-opacity:1; 
stroke-linecap:round; stroke-linejoin:round;">
<circle cx="65118.1" cy="31181.1" r="68.8976" /> 
</g>
<g style="fill:#FFFFFF; fill-opacity:1.0; 
stroke:#FFFFFF; stroke-width:19.685; stroke-opacity:1; 
stroke-linecap:round; stroke-linejoin:round;">
</g>
<g style="fill:#FFFFFF; fill-opacity:1.0; 
stroke:#FFFFFF; stroke-width:0; stroke-opacity:1; 
stroke-linecap:round; stroke-linejoin:round;">
<circle cx="65118.1" cy="30196.9" r="68.8976" /> 
</g>
<g style="fill:#FFFFFF; fill-opacity:1.0; 
stroke:#FFFFFF; stroke-width:19.685; stroke-opacity:1; 
stroke-linecap:round; stroke-linejoin:round;">
</g>
<g style="fill:#FFFFFF; fill-opacity:1.0; 
stroke:#FFFFFF; stroke-width:0; stroke-opacity:1; 
stroke-linecap:round; stroke-linejoin:round;">
<circle cx="68031.5" cy="29700" r="68.8976" /> 
</g>
<g style="fill:#FFFFFF; fill-opacity:1.0; 
stroke:#FFFFFF; stroke-width:19.685; stroke-opacity:1; 
stroke-linecap:round; stroke-linejoin:round;">
</g>
<g style="fill:#FFFFFF; fill-opacity:1.0; 
stroke:#FFFFFF; stroke-width:0; stroke-opacity:1; 
stroke-linecap:round; stroke-linejoin:round;">
<circle cx="68031.5" cy="31700" r="68.8976" /> 
</g>
<g style="fill:#FFFFFF; fill-opacity:1.0; 
stroke:#FFFFFF; stroke-width:19.685; stroke-opacity:1; 
stroke-linecap:round; stroke-linejoin:round;">
</g>
<g style="fill:#FFFFFF; fill-opacity:1.0; 
stroke:#FFFFFF; stroke-width:0; stroke-opacity:1; 
stroke-linecap:round; stroke-linejoin:round;">
<circle cx="60787.4" cy="29574.8" r="68.8976" /> 
</g>
<g style="fill:#FFFFFF; fill-opacity:1.0; 
stroke:#FFFFFF; stroke-width:19.685; stroke-opacity:1; 
stroke-linecap:round; stroke-linejoin:round;">
</g>
<g style="fill:#FFFFFF; fill-opacity:1.0; 
stroke:#FFFFFF; stroke-width:0; stroke-opacity:1; 
stroke-linecap:round; stroke-linejoin:round;">
<circle cx="60787.4" cy="31574.8" r="68.8976" /> 
</g>
<g style="fill:#FFFFFF; fill-opacity:1.0; 
stroke:#FFFFFF; stroke-width:19.685; stroke-opacity:1; 
stroke-linecap:round; stroke-linejoin:round;">
</g>
<g style="fill:#000000; fill-opacity:1.0; 
stroke:#000000; stroke-width:19.685; stroke-opacity:1; 
stroke-linecap:round; stroke-linejoin:round;">
</g> 
</svg>
